<svg width="35" height="34" viewBox="0 0 35 34" fill="none" xmlns="http://www.w3.org/2000/svg">
<path fill-rule="evenodd" clip-rule="evenodd" d="M8.52686 4C6.31772 4 4.52686 5.79086 4.52686 8C4.52686 10.2091 6.31772 12 8.52686 12C10.736 12 12.5269 10.2091 12.5269 8C12.5269 5.79086 10.736 4 8.52686 4ZM0.526855 8C0.526855 3.58172 4.10858 0 8.52686 0C12.9451 0 16.5269 3.58172 16.5269 8C16.5269 12.4182 12.9451 16 8.52686 16C4.10858 16 0.526855 12.4182 0.526855 8ZM26.5269 22C24.3177 22 22.5269 23.7908 22.5269 26C22.5269 28.2092 24.3177 30 26.5269 30C28.7361 30 30.5269 28.2092 30.5269 26C30.5269 23.7908 28.7361 22 26.5269 22ZM18.5269 26C18.5269 21.5818 22.1087 18 26.5269 18C30.9451 18 34.5269 21.5818 34.5269 26C34.5269 30.4182 30.9451 34 26.5269 34C22.1087 34 18.5269 30.4182 18.5269 26ZM31.9411 5.41422C32.7221 4.63316 32.7221 3.36684 31.9411 2.58578C31.1601 1.80474 29.8937 1.80474 29.1127 2.58578L3.11264 28.5858C2.3316 29.3668 2.3316 30.6332 3.11264 31.4142C3.8937 32.1952 5.16002 32.1952 5.94108 31.4142L31.9411 5.41422Z" fill="white"/>
</svg>
