<svg width="36" height="36" viewBox="0 0 36 36" fill="none" xmlns="http://www.w3.org/2000/svg">
<path d="M30.2718 0.857178H5.78199C3.07663 0.857178 0.884033 3.04978 0.884033 5.75515V30.2449C0.884033 32.9503 3.07663 35.1429 5.78199 35.1429H30.2718C32.9771 35.1429 35.1697 32.9503 35.1697 30.2449V5.75515C35.1697 3.04978 32.9771 0.857178 30.2718 0.857178ZM10.68 27.7959C9.32765 27.7959 8.23097 26.6993 8.23097 25.347C8.23097 23.9947 9.32765 22.898 10.68 22.898C12.0322 22.898 13.1289 23.9947 13.1289 25.347C13.1289 26.6993 12.0322 27.7959 10.68 27.7959ZM10.68 13.1021C9.32765 13.1021 8.23097 12.0054 8.23097 10.6531C8.23097 9.30081 9.32765 8.20412 10.68 8.20412C12.0322 8.20412 13.1289 9.30081 13.1289 10.6531C13.1289 12.0054 12.0322 13.1021 10.68 13.1021ZM18.0269 20.449C16.6746 20.449 15.5779 19.3523 15.5779 18C15.5779 16.6477 16.6746 15.5511 18.0269 15.5511C19.3792 15.5511 20.4759 16.6477 20.4759 18C20.4759 19.3523 19.3792 20.449 18.0269 20.449ZM25.3738 27.7959C24.0215 27.7959 22.9248 26.6993 22.9248 25.347C22.9248 23.9947 24.0215 22.898 25.3738 22.898C26.7261 22.898 27.8228 23.9947 27.8228 25.347C27.8228 26.6993 26.7261 27.7959 25.3738 27.7959ZM25.3738 13.1021C24.0215 13.1021 22.9248 12.0054 22.9248 10.6531C22.9248 9.30081 24.0215 8.20412 25.3738 8.20412C26.7261 8.20412 27.8228 9.30081 27.8228 10.6531C27.8228 12.0054 26.7261 13.1021 25.3738 13.1021Z" fill="white"/>
</svg>
