<svg width="41" height="30" viewBox="0 0 41 30" fill="none" xmlns="http://www.w3.org/2000/svg">
<path d="M19.8419 0C22.1766 0 24.0691 1.88511 24.0691 4.2105C24.0691 6.53589 22.1766 8.42108 19.8419 8.42108C17.5073 8.42108 15.6147 6.53589 15.6147 4.2105C15.6147 1.88511 17.5073 0 19.8419 0ZM15.6147 13.7237C15.051 14.0044 14.122 16.4473 14.6315 16.7764L11.8874 16.2736C13.7542 15.6 14.1281 14.4745 14.2797 12.4212L14.1359 11.1444C14.749 10.6362 15.6558 9.51324 16.4601 9.51332H23.2237C24.0457 9.51324 24.7679 9.86155 25.3901 10.3889L25.7864 11.8422C25.7864 13.5581 27.0987 14.074 28.4702 14.9051L26.5526 14.8652C26.054 14.8475 25.5924 14.9592 25.1673 15.1626C24.8072 14.5462 24.3621 13.8696 24.0691 13.7237L24.1643 15.8554C22.3748 17.4923 21.4799 20.5799 21.4799 20.5799L21.1707 22.1094L20.2646 22.1447C19.6565 22.1447 19.0596 22.0974 18.4772 22.0062C18.0136 20.7796 17.0031 18.5654 15.4456 17.5326L15.6147 13.7237ZM9.32671 7.85526C11.6614 7.85526 13.554 9.74037 13.554 12.0658C13.554 14.3912 11.6614 16.2763 9.32671 16.2763C6.9921 16.2763 5.09952 14.3912 5.09952 12.0658C5.09952 9.74037 6.9921 7.85526 9.32671 7.85526ZM5.09952 21.5789C4.5359 21.8597 3.40866 24.1052 3.40866 24.1052C3.40866 24.1052 2.84504 24.9474 2.56319 28.3157L0.0268555 27.4737L0.872326 23.2632C0.872326 23.2632 2.56319 17.3684 5.94491 17.3685H12.7084C16.0903 17.3684 17.7812 23.2632 17.7812 23.2632L18.6266 27.4737L16.0903 28.3158C15.8085 24.9474 15.2449 24.1052 15.2449 24.1052C15.2449 24.1052 14.1176 21.8597 13.554 21.5789L13.8955 29.2266C12.6104 29.726 11.2121 30 9.74949 30C7.9666 30 6.27923 29.5929 4.77598 28.8668L5.09952 21.5789ZM30.727 6.26132C33.0616 6.34413 34.9543 8.29634 34.9543 10.6217C34.9543 12.9471 33.0616 14.7651 30.727 14.6824C28.3924 14.5996 26.4998 12.6474 26.4998 10.322C26.4998 7.99658 28.3924 6.17858 30.727 6.26132ZM26.4998 19.8351C25.9362 20.0958 24.809 22.3014 24.809 22.3014C24.809 22.3014 24.2453 23.1235 23.9635 26.4819L21.4271 25.5499L22.2726 21.3694C22.2726 21.3694 23.9635 15.5346 27.3452 15.6546L34.1087 15.8945C37.4906 16.0143 39.1815 21.969 39.1815 21.969L40.0269 26.2096L37.4906 26.9617C37.2088 23.5833 36.6452 22.7212 36.6452 22.7212C36.6452 22.7212 35.5179 20.4356 34.9543 20.1349L35.2958 27.7948C34.0107 28.2485 32.6124 28.4729 31.1498 28.4211C29.3669 28.3578 27.6795 27.8908 26.1763 27.1115L26.4998 19.8351Z" fill="white"/>
</svg>
