<svg width="149" height="34" viewBox="0 0 149 34" fill="none" xmlns="http://www.w3.org/2000/svg">
<path d="M3.42928 15.0795H3.67595C4.29261 15.0795 5.00793 15.0795 5.62459 15.0795C6.01925 15.0795 6.33992 15.0059 6.63591 14.7605C7.35124 14.2206 7.35124 13.2145 6.63591 12.7482C6.38925 12.601 6.16725 12.4292 5.92059 12.4292C5.05726 12.3556 4.26794 12.4292 3.42928 12.3556V15.0795ZM3.42928 19.8157H3.67595C4.39127 19.8157 5.00793 19.8157 5.69859 19.8157C5.84659 19.8157 6.01925 19.8157 6.16725 19.8157C7.10457 19.6685 7.72123 18.8096 7.42524 17.8771C7.27724 17.2636 6.70991 16.9445 6.16725 16.7973C5.77259 16.7237 5.30393 16.7237 4.90927 16.7237C4.44061 16.7237 3.97194 16.7237 3.42928 16.7237V19.8157ZM0.296654 10.5642C1.15998 10.5642 2.0973 10.5642 2.96062 10.5642C4.14461 10.5642 5.30393 10.5642 6.48792 10.6378C7.42524 10.6378 8.21456 10.9568 8.75722 11.7176C9.37388 12.5765 9.54655 13.509 9.22588 14.5151C9.07788 14.9814 8.75722 15.3004 8.36256 15.5212C8.21456 15.5949 8.1159 15.6685 7.9679 15.7666C8.28856 15.9139 8.58456 16.0857 8.83122 16.3065C9.44788 16.8464 9.76854 17.6317 9.76854 18.4906C9.76854 19.4231 9.44788 20.2084 8.68322 20.8218C8.14056 21.2881 7.49924 21.5335 6.80858 21.6071C6.56191 21.6071 6.33992 21.6807 6.09325 21.6807C4.21861 21.6807 2.34396 21.6807 0.46932 21.6807C0.395321 21.6807 0.321322 21.6807 0.222656 21.6807V19.8893H1.08598V12.4292H0.222656L0.296654 10.5642ZM142.498 18.2697C142.498 18.0243 142.498 17.8034 142.498 17.558C142.424 17.0182 142.104 16.6255 141.635 16.3801C140.772 15.8403 139.76 16.1347 139.366 17.0918C139.119 17.8034 139.119 18.4169 139.292 19.1041C139.44 19.6439 139.686 20.0366 140.229 20.282C141.24 20.6746 142.498 19.8157 142.498 18.736V18.2697ZM140.476 23.4722C140.155 23.3985 139.76 23.3249 139.538 23.1531C138.922 22.8341 138.527 22.3679 138.28 21.6807C138.601 21.6807 138.897 21.6807 139.218 21.6807C139.292 21.6807 139.292 21.7544 139.366 21.7544C139.908 22.6869 141.018 22.9323 141.956 22.3679C142.35 22.1225 142.498 21.828 142.572 21.3617C142.572 20.8955 142.572 20.4292 142.572 19.963C142.498 20.0366 142.424 20.2084 142.326 20.282C141.388 21.3617 139.662 21.1409 138.872 20.0366C138.33 19.3249 138.256 18.5642 138.33 17.7053C138.33 17.1654 138.576 16.6992 138.798 16.2329C139.588 15.055 141.462 14.8341 142.326 16.0857C142.4 16.1593 142.474 16.2329 142.572 16.4047V15.3985H144.299V16.1102H143.436V16.3556C143.436 17.9998 143.436 19.6194 143.436 21.2636C143.436 22.4415 142.72 23.1286 141.635 23.374C141.487 23.374 141.388 23.4476 141.24 23.4476H140.451V23.4722H140.476ZM147.752 7.1286C147.752 5.87707 146.741 4.87093 145.483 4.87093C144.225 4.87093 143.214 5.87707 143.14 7.1286C143.14 8.38013 144.151 9.38627 145.409 9.45989C146.741 9.38627 147.752 8.38013 147.752 7.1286ZM148.221 7.44762C148.147 7.91388 147.974 8.30651 147.678 8.69915C146.963 9.63167 145.804 10.0243 144.694 9.70529C143.608 9.38627 142.819 8.45375 142.745 7.374C142.597 5.90161 143.608 4.57645 145.014 4.33105C145.014 4.33105 145.088 4.33105 145.162 4.33105H145.779H145.853C146.642 4.47829 147.185 4.79731 147.654 5.41081C147.974 5.80345 148.048 6.19609 148.196 6.66234V7.44762H148.221ZM93.7082 15.8403C93.5602 16.6255 93.3135 17.3863 93.1655 18.1715C92.9189 19.2513 92.6229 20.3556 92.3762 21.4353C92.3762 21.509 92.3762 21.5826 92.2282 21.5826C91.5129 21.5826 90.8222 21.5826 90.1069 21.5826C90.0329 21.3372 89.9589 21.1163 89.9589 20.8709C89.4163 18.9323 88.8736 16.9691 88.4049 15.0304C88.4049 14.8832 88.3309 14.785 88.1583 14.785C88.0103 14.785 87.8376 14.785 87.6156 14.785V13.1409H90.9702V14.785H90.1069C90.5016 16.4292 90.8962 18.0488 91.2909 19.693C91.3649 19.5458 91.3649 19.3004 91.4389 19.1531C91.8336 17.2145 92.2282 15.2513 92.6969 13.3863C92.6969 13.3126 92.7709 13.239 92.8449 13.239C93.4615 13.239 94.1029 13.239 94.7195 13.239C94.8675 13.239 94.8675 13.3126 94.8675 13.3863C95.3362 15.3985 95.7309 17.4354 96.1995 19.4476C96.1995 19.5212 96.1995 19.5212 96.2735 19.5949L97.3588 14.7605H96.4955V13.1163H99.8501V14.7605C99.7021 14.7605 99.4555 14.7605 99.3075 14.7605C99.2335 14.7605 99.1595 14.7605 99.1595 14.9077C98.6168 17.0182 97.9755 19.1777 97.4328 21.2881C97.3588 21.4354 97.3588 21.5335 97.1862 21.5335C96.5695 21.5335 95.9282 21.5335 95.3115 21.5335C95.1635 21.5335 95.1635 21.5335 95.0649 21.3863C94.5962 19.5949 94.2015 17.8034 93.7329 15.9384C93.7822 15.9139 93.7822 15.9139 93.7082 15.8403ZM82.4357 12.7237C81.893 14.3679 81.4243 15.9139 80.9557 17.558H83.8417C83.373 15.9139 82.9043 14.2942 82.4357 12.7237ZM87.6649 19.8157V21.6071H85.1736C85.0256 21.0673 84.853 20.5274 84.705 19.963C84.631 19.7176 84.557 19.4967 84.4583 19.2513C84.4583 19.1777 84.3843 19.1777 84.3103 19.1777C83.0523 19.1777 81.819 19.1777 80.635 19.1777C80.487 19.1777 80.487 19.2513 80.487 19.3249C80.2404 20.0366 80.0924 20.7237 79.8704 21.4353C79.8704 21.509 79.8704 21.509 79.7964 21.5826H77.2064V19.7912C77.4531 19.7912 77.6751 19.7912 77.9217 19.7912C78.0697 19.7912 78.0697 19.7912 78.1684 19.6439C79.1057 16.601 80.117 13.6562 81.0544 10.6133C81.0544 10.466 81.1284 10.466 81.301 10.466C82.0903 10.466 82.855 10.466 83.7183 10.466C83.8663 10.466 83.8663 10.5396 83.965 10.6133C84.9763 13.5826 85.9136 16.601 86.9496 19.5703C87.0236 19.7176 87.0236 19.7176 87.1963 19.7176C87.1963 19.8157 87.4429 19.8157 87.6649 19.8157ZM118.35 16.3065L121.951 16.3801C121.951 15.4476 121.236 14.736 120.299 14.736C119.361 14.6869 118.424 15.4476 118.35 16.3065ZM124.369 17.8771H118.35C118.424 18.6623 118.671 19.3495 119.287 19.8157C119.83 20.2084 120.471 20.282 121.162 20.0611C121.631 19.9139 121.877 19.5949 122.099 19.1286C122.173 19.055 122.173 18.9814 122.346 18.9814C122.963 18.9814 123.678 18.9814 124.295 18.9077C124.295 19.055 124.221 19.1531 124.221 19.2268C123.752 20.6992 122.741 21.558 121.162 21.8034C120.225 21.9507 119.361 21.8771 118.498 21.4108C117.413 20.8709 116.697 19.9384 116.377 18.6869C116.056 17.2145 116.229 15.8157 117.166 14.5642C118.72 12.4537 122.025 12.5519 123.579 14.6378C124.048 15.4476 124.443 16.9445 124.369 17.8771ZM13.3698 16.3065L16.9711 16.3801C17.0451 15.5212 16.3545 14.8341 15.4171 14.736C14.4552 14.6133 13.4438 15.374 13.3698 16.3065ZM19.2404 17.8771H13.2218C13.2218 18.0243 13.2218 18.1961 13.2958 18.3433C13.3698 18.6623 13.4438 18.9568 13.6165 19.2758C14.0112 19.9875 14.7018 20.2084 15.4911 20.1347C16.2065 20.0611 16.6751 19.6685 16.8971 19.055C16.8971 18.9814 16.9711 18.9814 17.0451 18.9814C17.6618 18.9814 18.3771 18.9077 18.9938 18.9077H19.0678C18.9938 19.374 18.8211 19.7666 18.5991 20.1593C17.9824 21.0918 17.1191 21.6317 16.0091 21.8034C15.0718 21.9507 14.1345 21.8771 13.2712 21.4108C12.0872 20.7973 11.4705 19.7666 11.1499 18.5396C10.9032 17.2881 11.0019 16.0611 11.6925 14.9568C13.0985 12.5519 16.6998 12.3065 18.3524 14.6378C18.9691 15.5703 19.2898 16.6501 19.2898 17.828C19.3144 17.8034 19.3144 17.8034 19.2404 17.8771ZM105.893 17.6317C105.351 17.7053 104.808 17.7053 104.339 17.8771C103.945 17.9507 103.624 18.0243 103.254 18.1961C102.785 18.3433 102.637 18.736 102.637 19.2022C102.637 19.6685 102.958 19.9875 103.427 20.1347C104.142 20.3801 104.981 20.1347 105.548 19.5949C105.992 19.0304 105.992 18.3433 105.893 17.6317ZM105.893 16.2329C105.893 15.9875 105.819 15.693 105.819 15.4476C105.745 14.9814 105.425 14.6623 104.956 14.5887C104.635 14.5151 104.241 14.5151 103.945 14.5887C103.402 14.736 103.007 15.055 103.007 15.6685C103.007 15.7421 103.007 15.8157 103.007 15.9139L100.985 15.8403C100.985 15.4476 101.059 15.055 101.305 14.7605C101.626 14.147 102.169 13.6807 102.785 13.4354C104.043 12.9691 105.277 12.9691 106.535 13.509C107.546 13.9016 108.015 14.7605 108.089 15.7666C108.163 16.6992 108.089 17.6317 108.089 18.6378C108.089 19.1041 108.089 19.5703 108.089 20.1102H108.804V21.7544H106.14V20.8218C106.066 20.8955 105.893 21.0673 105.819 21.1409C104.561 22.2206 102.465 22.147 101.281 21.0672C100.269 20.0611 100.269 18.0243 101.823 17.2636C102.539 16.8709 103.229 16.7237 104.019 16.6501C104.635 16.5764 105.277 16.5028 105.967 16.4047C105.819 16.2329 105.819 16.2329 105.893 16.2329ZM43.0188 14.6869C43.3395 14.3679 43.5615 14.0734 43.8821 13.7544C44.5975 13.1409 45.3621 12.8955 46.2994 13.0427C47.0148 13.19 47.3848 13.5826 47.6314 14.2206C47.7054 14.3679 47.7054 14.5396 47.7794 14.6869C47.8534 14.6133 47.9274 14.4415 48.0261 14.3679C48.4207 13.7544 48.9634 13.19 49.7527 13.0427C50.4681 12.8955 51.1587 12.8955 51.7014 13.3617C52.17 13.7544 52.318 14.2942 52.4167 14.8341C52.4167 14.9814 52.4167 15.2268 52.4167 15.374C52.4167 17.0182 52.4167 18.6378 52.4167 20.2084V20.4538H53.6007V21.4599H51.2574V21.2145C51.2574 19.2758 51.2574 17.4108 51.2574 15.4476C51.2574 15.2022 51.2574 15.055 51.1834 14.8341C51.0354 14.0488 50.4681 13.6562 49.6294 13.9016C49.0127 14.0488 48.6181 14.4415 48.2234 14.9814C47.9028 15.4476 47.7548 15.9875 47.7548 16.5274C47.7548 17.7789 47.7548 19.0059 47.7548 20.2574V20.5028H49.0127V21.509H46.4474V21.2636C46.4474 19.3249 46.4474 17.3617 46.4474 15.4231C46.4474 15.1777 46.4474 14.9568 46.3734 14.7114C46.2254 14.2452 45.9048 13.9998 45.4361 13.9261C44.7208 13.8525 44.2521 14.1715 43.7835 14.6378C43.2408 15.2513 42.9201 15.8893 42.9941 16.7482C42.9941 17.9261 42.9941 19.0795 42.9941 20.3311V20.5765H44.2521V21.5826H40.6755V20.5765H41.8595V14.1225H40.6755V13.1163H43.1668C42.9448 13.6562 42.9448 14.147 43.0188 14.6869ZM28.6877 17.0918H26.0977C26.0977 16.7728 26.0977 16.3801 26.1717 16.0857H30.0936V21.5335H28.8603V19.8157C28.7863 19.8893 28.7863 19.8893 28.7863 19.963C27.997 21.1409 26.9857 21.7544 25.5797 21.828C24.4944 21.828 23.631 21.4353 22.7677 20.7482C21.8304 19.8893 21.2877 18.8096 21.0411 17.6317C20.7204 16.0857 20.8931 14.5151 21.5097 13.0427C21.9784 12.0366 22.6937 11.1777 23.705 10.7114C25.3577 9.92615 27.3803 10.2452 28.5643 11.963C28.5643 12.0366 28.6383 12.0366 28.7123 12.1102V10.3924H29.8963V13.9016H28.6136C28.5396 13.4353 28.293 13.0427 28.071 12.6501C27.4543 11.7912 26.591 11.3249 25.5797 11.3249C24.6424 11.3249 23.853 11.7912 23.3104 12.5028C22.7677 13.1163 22.5211 13.9016 22.3731 14.7605C22.2251 15.9384 22.2991 17.0182 22.6937 18.0979C22.9404 18.7114 23.2364 19.2758 23.779 19.7421C24.7164 20.601 25.9003 20.7482 26.9857 20.2084C28.071 19.7421 28.7863 18.4169 28.6877 17.0918ZM61.8639 17.3372C61.8639 17.19 61.8639 17.0182 61.8639 16.7973C61.7899 16.1838 61.6173 15.5458 61.3213 15.0059C60.7046 14.147 59.6686 13.828 58.7313 14.2942C57.868 14.6869 57.0046 15.7666 57.1773 16.9446C57.2513 17.558 57.1773 18.1225 57.3253 18.736C57.4733 19.7421 58.5093 20.601 59.5206 20.7482C60.3839 20.8219 61.1733 20.3556 61.5433 19.5703C61.7159 18.8096 61.8639 18.0979 61.8639 17.3372ZM55.8453 11.1041H54.76V10.0979H57.1033V14.9323C57.1773 14.8587 57.1773 14.785 57.2513 14.785C57.498 14.3924 57.868 13.9998 58.2626 13.7053C59.3479 12.92 60.6799 12.92 61.7899 13.8525C62.5792 14.466 62.9739 15.3249 63.1959 16.2574C63.5166 17.6562 63.3439 18.9814 62.5792 20.2329C62.1846 20.8464 61.6419 21.4108 60.9266 21.7053C59.8413 22.0979 58.5833 21.7789 57.794 20.92C57.646 20.6746 57.3993 20.4538 57.1773 20.2084V21.6807H54.76V20.6746H55.944V11.1041H55.8453ZM37.0742 17.3372C37.0002 17.3372 36.9262 17.3372 36.9262 17.3372C36.2109 17.4108 35.5202 17.5826 34.7309 17.7298C34.2622 17.8034 33.7936 17.9752 33.3989 18.2697C33.1523 18.4169 32.9303 18.6623 32.9303 19.055C32.7823 19.9875 33.4729 20.92 34.4842 20.9936C35.5696 21.0673 36.7536 20.2084 36.9756 19.1286C37.0742 18.4169 36.9755 17.8771 37.0742 17.3372ZM38.1595 20.6746H39.3435C39.3435 20.9936 39.4175 21.3863 39.4175 21.6807H37.0002V20.2084C36.9262 20.282 36.9262 20.282 36.9262 20.282C36.3096 21.2881 35.3722 21.7544 34.1883 21.828C33.1769 21.9016 32.3876 21.509 31.8449 20.6501C31.3763 19.8648 31.2283 19.1041 31.6969 18.2452C31.9436 17.7053 32.4123 17.4599 32.9549 17.239C33.6703 16.92 34.4349 16.7728 35.2242 16.6255C35.7669 16.5519 36.4082 16.4783 37.0249 16.3801C37.0249 15.9875 37.0249 15.5212 36.9509 15.1286C36.8029 14.5151 36.3342 14.1961 35.7669 14.0488C35.2982 13.9016 34.7556 13.9752 34.2869 14.0488C33.6703 14.1961 33.2756 14.6623 33.1029 15.2268C33.0289 15.374 33.0289 15.4722 32.7823 15.4722C32.3876 15.4722 32.0669 15.4722 31.6969 15.4722C31.9436 14.466 32.4123 13.7544 33.3496 13.2881C34.4349 12.8219 35.5449 12.8219 36.6302 13.2881C37.4935 13.6807 37.9622 14.3679 38.1102 15.3004C38.1102 15.5458 38.1102 15.693 38.1102 15.9139C38.1102 17.3863 38.1102 18.785 38.1102 20.282L38.1595 20.6746ZM69.8312 16.6992H74.4438C74.4438 15.9875 74.1971 15.4476 73.9011 14.9077C73.4324 14.2942 72.8898 13.9752 72.1005 14.1225C70.6205 14.2942 69.9298 15.374 69.8312 16.6992ZM75.8744 17.6317H69.7818C69.8558 17.9507 69.8558 18.1715 69.9298 18.4169C70.0038 18.8832 70.1765 19.3495 70.4725 19.8157C71.0891 20.7482 72.4951 21.0673 73.3585 20.5274C73.7531 20.282 73.9751 19.9139 74.2218 19.5212C74.2958 19.374 74.3698 19.2758 74.5424 19.2758C74.9371 19.2758 75.3318 19.2758 75.7264 19.2758C75.6524 19.4231 75.6524 19.5949 75.5784 19.7421C75.0358 20.9936 73.5558 21.8525 72.1251 21.6807C70.1765 21.5335 68.8445 20.2084 68.5238 18.2452C68.2772 16.9936 68.4498 15.7666 69.1405 14.6623C69.6832 13.7298 70.5465 13.1163 71.6318 12.9446C73.1858 12.6992 74.6164 13.4844 75.3071 14.8832C75.7018 15.6685 75.8498 16.5274 75.8498 17.4599C75.8744 17.6317 75.8744 17.6317 75.8744 17.6317ZM112.701 19.963H113.713V21.6071H109.791V19.963H110.654V14.8341H109.791V13.19H112.677V14.4415C112.751 14.3679 112.825 14.1961 112.825 14.1225C113.145 13.6562 113.54 13.1899 114.157 13.1163C114.625 12.9691 115.168 13.0427 115.637 13.1163L115.711 13.19C115.711 13.8034 115.711 14.4415 115.711 15.055C115.464 15.055 115.242 14.9814 114.995 14.9814C114.379 14.9077 113.737 15.055 113.269 15.4476C112.874 15.7666 112.726 16.2329 112.652 16.6992C112.652 17.7053 112.652 18.7114 112.652 19.8157C112.627 19.8893 112.627 19.8893 112.701 19.963ZM65.0705 11.0304H63.8866V10.0979H66.3039V20.601H67.3892V21.6071H63.8866V20.601H65.0705V11.0304ZM128.364 18.5642C128.364 19.0304 128.438 19.4967 128.611 19.963C128.932 20.5765 129.4 20.9691 130.091 20.9691C130.782 20.9691 131.349 20.6501 131.645 20.0366C131.793 19.6439 131.892 19.3249 131.966 18.8587C132.04 18.2452 131.966 17.6071 131.645 17.0673C131.324 16.4538 130.782 16.1347 130.091 16.1347C129.4 16.1347 129.006 16.5274 128.685 17.0673C128.364 17.558 128.364 18.0243 128.364 18.5642ZM132.878 18.4169C132.878 19.2022 132.73 19.8893 132.336 20.4292C131.719 21.3617 130.856 21.6807 129.746 21.6071C128.734 21.5335 128.019 20.8955 127.624 19.963C127.23 18.9568 127.156 17.8525 127.624 16.8464C128.093 15.8403 128.956 15.3004 130.116 15.3004C131.275 15.3004 132.064 15.8403 132.533 16.8464C132.804 17.4108 132.878 17.9507 132.878 18.4169ZM136.332 21.5335H133.594V20.8218H134.457V16.2329H133.594V15.5212H135.394V16.7728C135.715 16.2329 136.11 15.693 136.726 15.4476C137.047 15.374 137.59 15.374 137.91 15.4476V16.3065C137.762 16.3065 137.59 16.3065 137.442 16.2329C136.356 16.1593 135.419 16.9445 135.419 18.0243C135.419 18.8832 135.419 19.8157 135.419 20.6746V20.7482H136.43L136.332 21.5335ZM125.38 20.5274H126.391V21.5335H125.38V20.5274ZM144.768 5.87706V6.80958C145.088 6.80958 145.384 6.80958 145.705 6.80958C145.779 6.80958 145.853 6.80958 145.952 6.73596C146.198 6.66234 146.272 6.49056 146.198 6.19608C146.198 5.95068 146.05 5.80345 145.804 5.80345C145.483 5.87707 145.162 5.87706 144.768 5.87706ZM146.1 7.05498C146.42 7.1286 146.494 7.374 146.494 7.59486C146.494 7.81571 146.568 8.13474 146.568 8.38013C146.1 8.38013 146.174 8.45375 146.1 7.9875C146.1 7.84026 146.1 7.66848 146.026 7.52124C145.952 7.27584 145.878 7.1286 145.557 7.1286C145.236 7.1286 144.94 7.1286 144.62 7.1286V8.30651H144.225V5.50897C144.299 5.50897 144.373 5.50897 144.546 5.50897C144.94 5.50897 145.335 5.50897 145.73 5.50897C146.124 5.50897 146.346 5.75437 146.445 6.04885C146.667 6.5151 146.494 6.80958 146.1 7.05498Z" fill="white"/>
</svg>
