<svg width="98" height="34" viewBox="0 0 98 34" fill="none" xmlns="http://www.w3.org/2000/svg">
<path d="M37.186 13.1918C37.2461 13.4167 37.1709 13.5516 36.9906 13.6116L35.262 14.1213C35.0516 14.1813 34.9464 14.1213 34.8712 13.9114C34.6007 13.0269 34.0295 12.5621 32.9623 12.5621C31.339 12.5621 30.7829 13.5216 30.7829 14.8109V17.7794C30.7829 19.0688 31.324 20.0283 32.9623 20.0283C34.3001 20.0283 35.0065 19.4136 35.0065 18.0493V17.6595H33.2479C33.0976 17.6595 33.0074 17.5845 33.0074 17.4046V15.7555C32.9924 15.6355 33.0826 15.5156 33.2179 15.5006C33.2329 15.5006 33.2479 15.5006 33.2479 15.5006H37.1559C37.3212 15.5006 37.4114 15.5756 37.4114 15.7405V18.1992C37.4114 20.538 35.6829 22.3071 32.9924 22.3071C29.8059 22.3071 28.3179 20.4181 28.3179 17.8394V14.706C28.3179 12.1273 29.8059 10.2383 32.9924 10.2383C35.5627 10.2533 36.72 11.7225 37.186 13.1918ZM45.9489 16.1153V21.8723C45.9639 21.9923 45.8587 22.0972 45.7384 22.1122C45.7234 22.1122 45.7234 22.1122 45.7084 22.1122H43.9498C43.8295 22.1272 43.7093 22.0373 43.6943 21.9023C43.6943 21.8873 43.6943 21.8723 43.6943 21.8723V20.9278C43.1832 21.7824 42.2663 22.3071 41.2593 22.2921C39.5909 22.2921 38.5237 21.2277 38.5237 19.5785C38.5237 17.9743 39.5308 17.0298 41.9958 16.8499C42.5219 16.8049 43.063 16.8049 43.6041 16.8349V16.1902C43.6041 15.3357 43.1531 14.9909 42.3866 14.9909C41.605 14.9909 41.3795 15.3057 41.1691 15.8004C41.0939 15.9953 41.0188 16.0253 40.8535 15.9803L39.0949 15.5306C38.9145 15.4856 38.8995 15.3807 38.9295 15.2607C39.17 14.0014 40.3725 13.0718 42.4768 13.0718C44.7013 13.0868 45.9489 14.1513 45.9489 16.1153ZM43.6041 19.1437V18.3042C43.1381 18.2892 42.6571 18.3042 42.1912 18.3491C41.2893 18.4541 40.8234 18.7389 40.8234 19.4136C40.8234 20.0283 41.2443 20.3731 41.9206 20.3731C42.7022 20.3731 43.3185 19.9533 43.6041 19.1437ZM52.2918 13.0868C53.4041 13.0868 54.1406 13.7465 54.4863 14.691C55.1476 13.7315 55.9443 13.0868 57.0565 13.0868C58.6047 13.0868 59.4915 14.3162 59.4915 16.1453V21.8723C59.4915 22.0223 59.3562 22.1122 59.2059 22.1122H57.3722C57.2068 22.1122 57.0866 22.0223 57.0866 21.8723V16.565C57.0866 15.7705 56.7409 15.2907 56.1096 15.2907C55.4482 15.2907 54.9673 15.8304 54.7418 16.655V21.8723C54.7568 21.9923 54.6516 22.0972 54.5314 22.1122H54.5163H52.5323C52.382 22.1122 52.3219 22.0223 52.3219 21.8723V16.565C52.3219 15.7705 51.9611 15.2907 51.3449 15.2907C50.6685 15.2907 50.1875 15.8604 49.9771 16.685V21.8873C49.9921 22.0073 49.9019 22.1122 49.7817 22.1272C49.7666 22.1272 49.7516 22.1272 49.7366 22.1272H47.7976C47.6774 22.1422 47.5722 22.0522 47.5571 21.9323C47.5571 21.9173 47.5571 21.9023 47.5571 21.8873V13.5216C47.5571 13.4017 47.6623 13.2967 47.7826 13.2967H47.7976H49.6614C49.7817 13.2817 49.8869 13.3717 49.9019 13.5066V13.5216V14.5261C50.413 13.7765 51.1795 13.0868 52.2918 13.0868ZM69.547 13.2817C69.5921 13.4916 69.532 13.6415 69.3366 13.7015L67.6381 14.1963C67.4277 14.2562 67.3225 14.1813 67.2473 13.9864C67.0068 13.1918 66.586 12.5471 65.4136 12.5471C63.9556 12.5471 63.4897 13.5066 63.4897 14.7959V17.7644C63.4897 19.0538 64.0157 20.0133 65.4136 20.0133C66.6611 20.0133 67.1421 19.3086 67.3375 18.4391C67.3826 18.2442 67.5179 18.1542 67.7283 18.2292L69.4268 18.7689C69.6222 18.8289 69.6823 18.9788 69.6372 19.1887C69.2314 20.9128 67.9838 22.3221 65.3985 22.3221C62.4826 22.3221 61.0246 20.4331 61.0246 17.8544V14.721C61.0246 12.1423 62.5277 10.2533 65.3985 10.2533C67.9237 10.2533 69.1111 11.5876 69.547 13.2817ZM78.0694 16.1153V21.8723C78.0844 21.9923 77.9792 22.0972 77.859 22.1122C77.8439 22.1122 77.8439 22.1122 77.8289 22.1122H76.0703C75.9501 22.1272 75.8298 22.0373 75.8148 21.9023C75.8148 21.8873 75.8148 21.8723 75.8148 21.8723V20.9278C75.3038 21.7824 74.3869 22.3071 73.3798 22.2921C71.7114 22.2921 70.6443 21.2277 70.6443 19.5785C70.6443 17.9743 71.6513 17.0298 74.1163 16.8499C74.6424 16.8049 75.1835 16.8049 75.7246 16.8349V16.1902C75.7246 15.3357 75.2737 14.9909 74.5071 14.9909C73.7255 14.9909 73.5001 15.3057 73.2896 15.8004C73.2145 15.9953 73.1393 16.0253 72.974 15.9803L71.2154 15.5306C71.035 15.4856 71.02 15.3807 71.0501 15.2607C71.2906 14.0014 72.493 13.0718 74.5973 13.0718C76.8219 13.0868 78.0694 14.1513 78.0694 16.1153ZM75.7096 19.1437V18.3042C75.2436 18.2892 74.7627 18.3042 74.2967 18.3491C73.3949 18.4541 72.9289 18.7389 72.9289 19.4136C72.9289 20.0283 73.3498 20.3731 74.0262 20.3731C74.8228 20.3731 75.424 19.9533 75.7096 19.1437ZM84.9084 13.4466V15.1558C84.9084 15.3657 84.8332 15.4406 84.6228 15.4406H84.3673C83.0896 15.4406 82.3381 16.0103 82.0826 16.9698V21.8873C82.0976 22.0073 82.0074 22.1122 81.8872 22.1272H81.8722H79.8581C79.7378 22.1272 79.6476 22.0223 79.6476 21.9023C79.6476 21.9023 79.6476 21.9023 79.6476 21.8873V13.5066C79.6476 13.3867 79.7378 13.2817 79.843 13.2817C79.8581 13.2817 79.8731 13.2817 79.8731 13.2817H81.6918C81.8872 13.2817 81.9323 13.4017 81.9323 13.5366V14.721C82.3531 13.9414 83.1347 13.1768 84.5025 13.1768C84.8482 13.1768 84.9084 13.2218 84.9084 13.4466ZM88.0498 18.4391V18.7689C88.0498 19.6984 88.5308 20.3431 89.6581 20.3431C90.7553 20.3431 91.0709 19.9233 91.3565 19.3986C91.5068 19.1587 91.567 19.1287 91.8225 19.2337L93.085 19.8784C93.3406 20.0133 93.3556 20.1332 93.2504 20.3731C92.7093 21.6025 91.3415 22.3071 89.6581 22.3071C87.1028 22.3071 85.7501 20.7929 85.7501 18.7239V16.685C85.7501 14.676 87.0127 13.1018 89.628 13.1018C92.1231 13.1018 93.3406 14.676 93.3406 16.64V18.0493C93.3406 18.2892 93.2654 18.4541 92.9197 18.4541L88.0498 18.4391ZM88.0498 16.565V16.8649H91.1311V16.565C91.1311 15.7105 90.6501 15.0358 89.5979 15.0358C88.5458 15.0358 88.0498 15.7105 88.0498 16.565Z" fill="white"/>
<path d="M14.2042 3.31152H3.47228C3.29191 3.31152 3.1416 3.46145 3.1416 3.64135V19.2034C3.1416 24.7506 7.65081 29.2633 13.2272 29.2633H14.2042C19.7655 29.2633 24.2747 24.7656 24.2747 19.2034V13.3714C24.2898 7.80922 19.7806 3.31152 14.2042 3.31152ZM21.0582 19.3683C21.0582 23.1464 18.2625 26.0099 13.9336 26.0099C8.79314 26.0099 6.38823 22.9665 6.38823 18.7986V13.7462C6.38823 9.57832 8.79314 6.53487 13.9336 6.53487C18.0971 6.53487 19.976 8.90366 20.7275 11.2725C20.8327 11.6323 20.6974 11.8422 20.4118 11.9471L17.6161 12.7717C17.2855 12.8766 17.1051 12.7717 16.9999 12.4419C16.564 11.0176 15.6321 10.253 13.9336 10.253C11.3033 10.253 10.4165 11.7972 10.4165 13.8811V18.6787C10.4165 20.7626 11.2882 22.3068 13.9336 22.3068C16.098 22.3068 17.2404 21.3023 17.2404 19.1134V18.4988H14.3545C14.129 18.4988 13.9637 18.3638 13.9637 18.094V15.4403C13.9637 15.1855 14.114 15.0205 14.3545 15.0205H20.6523C20.9079 15.0205 21.0582 15.1555 21.0582 15.4103V19.3683Z" fill="#2E008B"/>
</svg>
