<svg width="36" height="36" viewBox="0 0 36 36" fill="none" xmlns="http://www.w3.org/2000/svg">
<path d="M18 0C8.05645 0 0 8.05645 0 18C0 27.9435 8.05645 36 18 36C27.9435 36 36 27.9435 36 18C36 8.05645 27.9435 0 18 0ZM23.8065 12.1935C25.0911 12.1935 26.129 13.2315 26.129 14.5161C26.129 15.8008 25.0911 16.8387 23.8065 16.8387C22.5218 16.8387 21.4839 15.8008 21.4839 14.5161C21.4839 13.2315 22.5218 12.1935 23.8065 12.1935ZM12.1935 12.1935C13.4782 12.1935 14.5161 13.2315 14.5161 14.5161C14.5161 15.8008 13.4782 16.8387 12.1935 16.8387C10.9089 16.8387 9.87097 15.8008 9.87097 14.5161C9.87097 13.2315 10.9089 12.1935 12.1935 12.1935ZM26.3323 24.5468C24.2637 27.029 21.2298 28.4516 18 28.4516C14.7702 28.4516 11.7363 27.029 9.66774 24.5468C8.68064 23.3637 10.4661 21.8831 11.4532 23.0589C13.079 25.0113 15.4597 26.1218 18 26.1218C20.5403 26.1218 22.921 25.004 24.5468 23.0589C25.5194 21.8831 27.3121 23.3637 26.3323 24.5468Z" fill="white"/>
</svg>
