<svg width="39" height="36" viewBox="0 0 39 36" fill="none" xmlns="http://www.w3.org/2000/svg">
<path d="M17.158 19.2309L14.5772 16.7251C14.2509 16.4028 13.8433 16.2416 13.3544 16.2416C12.8656 16.2416 12.4426 16.4174 12.0854 16.7691C11.7591 17.0915 11.5959 17.5018 11.5959 18C11.5959 18.4982 11.7591 18.9085 12.0854 19.2309L15.9121 23.0115C16.2681 23.3632 16.6834 23.5391 17.158 23.5391C17.6326 23.5391 18.0479 23.3632 18.4039 23.0115L25.9683 15.5382C26.3243 15.1865 26.4946 14.7762 26.4791 14.3073C26.4637 13.8384 26.2934 13.4281 25.9683 13.0764C25.6123 12.7247 25.1899 12.5418 24.701 12.5277C24.2122 12.5137 23.7892 12.6819 23.432 13.0324L17.158 19.2309ZM12.1744 35.1448L9.5936 30.8366L4.69899 29.7815C4.25402 29.6936 3.89805 29.4668 3.63107 29.101C3.36409 28.7353 3.26027 28.332 3.3196 27.8912L3.80906 22.9236L0.47182 19.143C0.175177 18.8206 0.0268555 18.4396 0.0268555 18C0.0268555 17.5604 0.175177 17.1794 0.47182 16.857L3.80906 13.0764L3.3196 8.1088C3.26027 7.66919 3.36409 7.26592 3.63107 6.89899C3.89805 6.53206 4.25402 6.30523 4.69899 6.21848L9.5936 5.16341L12.1744 0.855246C12.4117 0.474252 12.738 0.21752 13.1533 0.0850511C13.5686 -0.0474178 13.9839 -0.0251443 14.3992 0.151872L19.0269 2.08615L23.6545 0.151872C24.0698 -0.023972 24.4851 -0.0462455 24.9004 0.0850511C25.3157 0.216348 25.642 0.473079 25.8793 0.855246L28.4601 5.16341L33.3547 6.21848C33.7997 6.3064 34.1557 6.53382 34.4226 6.90075C34.6896 7.26768 34.7934 7.67036 34.7341 8.1088L34.2447 13.0764L37.5819 16.857C37.8785 17.1794 38.0269 17.5604 38.0269 18C38.0269 18.4396 37.8785 18.8206 37.5819 19.143L34.2447 22.9236L34.7341 27.8912C34.7934 28.3308 34.6896 28.7341 34.4226 29.101C34.1557 29.4679 33.7997 29.6948 33.3547 29.7815L28.4601 30.8366L25.8793 35.1448C25.642 35.5258 25.3157 35.7825 24.9004 35.915C24.4851 36.0474 24.0698 36.0251 23.6545 35.8481L19.0269 33.9138L14.3992 35.8481C13.9839 36.024 13.5686 36.0462 13.1533 35.915C12.738 35.7837 12.4117 35.5269 12.1744 35.1448Z" fill="white"/>
</svg>
