<svg width="61" height="61" viewBox="0 0 61 61" fill="none" xmlns="http://www.w3.org/2000/svg">
<g clip-path="url(#clip0_92_1470)">
<path d="M56 24.5H44.8681C46.0578 27.2741 45.5356 30.6125 43.2744 32.8738L30.5 45.6481V50C30.5 52.4853 32.5147 54.5 35 54.5H56C58.4853 54.5 60.5 52.4853 60.5 50V29C60.5 26.5147 58.4853 24.5 56 24.5ZM45.5 41.75C44.2578 41.75 43.25 40.7422 43.25 39.5C43.25 38.2569 44.2578 37.25 45.5 37.25C46.7422 37.25 47.75 38.2569 47.75 39.5C47.75 40.7422 46.7422 41.75 45.5 41.75ZM41.1528 24.2469L24.7531 7.84719C22.9569 6.05094 20.0441 6.05094 18.2478 7.84719L1.84719 24.2469C0.0509375 26.0431 0.0509375 28.9559 1.84719 30.7522L18.2469 47.1528C20.0431 48.9491 22.9559 48.9491 24.7522 47.1528L41.1528 30.7531C42.9491 28.9559 42.9491 26.0431 41.1528 24.2469ZM9.5 29.75C8.25781 29.75 7.25 28.7422 7.25 27.5C7.25 26.2569 8.25781 25.25 9.5 25.25C10.7422 25.25 11.75 26.2569 11.75 27.5C11.75 28.7422 10.7422 29.75 9.5 29.75ZM21.5 41.75C20.2578 41.75 19.25 40.7422 19.25 39.5C19.25 38.2569 20.2578 37.25 21.5 37.25C22.7422 37.25 23.75 38.2569 23.75 39.5C23.75 40.7422 22.7422 41.75 21.5 41.75ZM21.5 29.75C20.2578 29.75 19.25 28.7422 19.25 27.5C19.25 26.2569 20.2578 25.25 21.5 25.25C22.7422 25.25 23.75 26.2569 23.75 27.5C23.75 28.7422 22.7422 29.75 21.5 29.75ZM21.5 17.75C20.2578 17.75 19.25 16.7422 19.25 15.5C19.25 14.2569 20.2578 13.25 21.5 13.25C22.7422 13.25 23.75 14.2569 23.75 15.5C23.75 16.7422 22.7422 17.75 21.5 17.75ZM33.5 29.75C32.2578 29.75 31.25 28.7422 31.25 27.5C31.25 26.2569 32.2578 25.25 33.5 25.25C34.7422 25.25 35.75 26.2569 35.75 27.5C35.75 28.7422 34.7422 29.75 33.5 29.75Z" fill="white"/>
</g>
<defs>
<clipPath id="clip0_92_1470">
<rect width="60" height="60" fill="white" transform="translate(0.5 0.5)"/>
</clipPath>
</defs>
</svg>
