<svg width="61" height="61" viewBox="0 0 61 61" fill="none" xmlns="http://www.w3.org/2000/svg">
<g clip-path="url(#clip0_92_1493)">
<path d="M49.25 38H43.625V41.75H49.25V38Z" fill="white"/>
<path d="M60.5 19.25H0.5V26.75H60.5V19.25Z" fill="white"/>
<path d="M60.5 17.375V11.75C60.5 9.67719 58.8228 8 56.75 8H4.25C2.17719 8 0.5 9.67719 0.5 11.75V17.375H60.5Z" fill="white"/>
<path d="M0.5 28.625V49.25C0.5 51.3228 2.17719 53 4.25 53H56.75C58.8228 53 60.5 51.3228 60.5 49.25V28.625H0.5ZM20.1875 43.625H10.8125C10.2941 43.625 9.875 43.2059 9.875 42.6875C9.875 42.1691 10.2941 41.75 10.8125 41.75H20.1875C20.7059 41.75 21.125 42.1691 21.125 42.6875C21.125 43.2059 20.7059 43.625 20.1875 43.625ZM23.9375 38H10.8125C10.2941 38 9.875 37.5809 9.875 37.0625C9.875 36.5441 10.2941 36.125 10.8125 36.125H23.9375C24.4559 36.125 24.875 36.5441 24.875 37.0625C24.875 37.5809 24.4559 38 23.9375 38ZM33.3125 38H27.6875C27.1691 38 26.75 37.5809 26.75 37.0625C26.75 36.5441 27.1691 36.125 27.6875 36.125H33.3125C33.8309 36.125 34.25 36.5441 34.25 37.0625C34.25 37.5809 33.8309 38 33.3125 38ZM51.125 42.6875C51.125 43.2059 50.7059 43.625 50.1875 43.625H42.6875C42.1691 43.625 41.75 43.2059 41.75 42.6875V37.0625C41.75 36.5441 42.1691 36.125 42.6875 36.125H50.1875C50.7059 36.125 51.125 36.5441 51.125 37.0625V42.6875Z" fill="white"/>
</g>
<defs>
<clipPath id="clip0_92_1493">
<rect width="60" height="60" fill="white" transform="translate(0.5 0.5)"/>
</clipPath>
</defs>
</svg>
