<svg width="61" height="61" viewBox="0 0 61 61" fill="none" xmlns="http://www.w3.org/2000/svg">
<path fill-rule="evenodd" clip-rule="evenodd" d="M22.2872 5.08301H37.2343C41.0626 5.08301 38.9603 10.9995 37.4103 14.6083L35.6464 18.747L35.4081 19.3052C37.0789 19.2217 38.7312 19.6983 40.1166 20.6635C45.2995 25.5481 49.506 31.429 52.4991 37.9755C53.6654 40.3961 54.1281 43.1125 53.8314 45.7977C53.4753 52.6418 48.1443 58.0956 41.4974 58.4163H18.024C11.3753 58.1052 6.0365 52.6571 5.67282 45.8119C5.37609 43.1267 5.8388 40.4103 7.00529 37.9897C10.0019 31.4368 14.2142 25.5506 19.4048 20.6635C20.7905 19.6983 22.4425 19.2217 24.1132 19.3052L23.8371 18.6617L22.1112 14.6083C20.5681 10.9995 18.4555 5.08301 22.2872 5.08301Z" fill="white"/>
<path d="M30.6438 51.75H29.1887C28.8632 51.75 28.5994 51.4304 28.5994 51.0357V49.6018C28.5994 49.2246 28.3573 48.9146 28.0478 48.8729C27.311 48.7739 26.5984 48.5893 25.9096 48.3193C25.2405 48.0529 24.6609 47.7371 24.1706 47.3711C23.9453 47.2029 23.8633 46.8614 23.9565 46.5614L24.9546 43.345C25.0891 42.9121 25.5228 42.7464 25.8567 42.9704C26.3077 43.2721 26.7924 43.5304 27.3104 43.7446C28.0826 44.0461 28.8236 44.1968 29.5332 44.1968C30.1434 44.1968 30.5795 44.1171 30.8409 43.9575C31.1023 43.78 31.2332 43.5229 31.2332 43.1861C31.2332 42.7961 31.0588 42.5036 30.71 42.3086C30.374 42.1136 29.8134 41.9007 29.0291 41.6704C28.0203 41.3689 27.1799 41.0496 26.5074 40.7129C25.835 40.3582 25.2496 39.7907 24.7515 39.0107C24.2534 38.2129 24.0044 37.14 24.0044 35.7925C24.0044 34.2321 24.3966 32.8936 25.181 31.7764C25.8882 30.7857 26.8643 30.1157 28.1101 29.7668C28.3905 29.6882 28.5994 29.3932 28.5994 29.0446V27.4643C28.5994 27.0696 28.8632 26.75 29.1887 26.75H30.6438C30.9693 26.75 31.2332 27.0696 31.2332 27.4643V28.9543C31.2332 29.3193 31.4604 29.6232 31.7578 29.6793C32.8491 29.8846 33.808 30.2736 34.6343 30.8461C34.8688 31.0086 34.9619 31.3543 34.8718 31.6629L33.9377 34.8661C33.8141 35.2907 33.4016 35.4704 33.0697 35.2675C32.0174 34.6246 31.0131 34.3032 30.0563 34.3032C28.923 34.3032 28.3564 34.6932 28.3564 35.4732C28.3564 35.8457 28.5247 36.1293 28.8608 36.3246C29.1971 36.5018 29.7511 36.6968 30.5233 36.9096C31.5194 37.1757 32.3601 37.4857 33.0449 37.8404C33.7298 38.1771 34.3212 38.7357 34.8196 39.5161C35.33 40.2961 35.5854 41.36 35.5854 42.7075C35.5854 44.1968 35.2055 45.5 34.4457 46.6171C33.7842 47.5907 32.8682 48.2721 31.6983 48.6618C31.4293 48.7514 31.2332 49.04 31.2332 49.3779V51.0357C31.2332 51.4304 30.9693 51.75 30.6438 51.75Z" fill="url(#paint0_linear_92_1484)"/>
<path d="M35.755 20.0833C37.3138 20.0833 38.5775 18.9641 38.5775 17.5835C38.5775 16.2028 37.3138 15.0836 35.755 15.0836V20.0833ZM23.7492 15.0836C22.1905 15.0836 20.9268 16.2028 20.9268 17.5835C20.9268 18.9641 22.1905 20.0833 23.7492 20.0833V15.0836ZM45.8381 16.4165C47.1887 15.7273 47.6531 14.1988 46.8749 13.0025C46.0966 11.8062 44.3711 11.395 43.0205 12.0842L45.8381 16.4165ZM36.0083 17.0602L36.5528 19.5131L36.5611 19.5116L36.0083 17.0602ZM23.4557 16.9802L24.0401 14.5343L24.0145 14.5297L23.4557 16.9802ZM16.4405 12.0623C15.0761 11.3946 13.3589 11.8328 12.6049 13.0411C11.8509 14.2495 12.3456 15.7705 13.71 16.4383L16.4405 12.0623ZM35.755 15.0836H23.7492V20.0833H35.755V15.0836ZM43.0205 12.0842C40.6609 13.288 38.1071 14.1398 35.4554 14.6087L36.5611 19.5116C39.8175 18.9357 42.9497 17.8902 45.8381 16.4165L43.0205 12.0842ZM35.4637 14.6073C31.6876 15.265 27.8061 15.2401 24.0401 14.5343L22.8715 19.4259C27.3812 20.271 32.0304 20.3007 36.5528 19.5131L35.4637 14.6073ZM24.0145 14.5297C21.3699 14.0569 18.8168 13.2256 16.4405 12.0623L13.71 16.4383C16.5882 17.8471 19.6851 18.8562 22.8972 19.4306L24.0145 14.5297Z" fill="white"/>
<defs>
<linearGradient id="paint0_linear_92_1484" x1="29.752" y1="26.75" x2="29.752" y2="51.75" gradientUnits="userSpaceOnUse">
<stop stop-color="#FF0010"/>
<stop offset="1" stop-color="#85020A"/>
</linearGradient>
</defs>
</svg>
