<svg width="36" height="36" viewBox="0 0 36 36" fill="none" xmlns="http://www.w3.org/2000/svg">
<path d="M36 18C36 27.936 27.945 36 18 36C8.055 36 0 27.936 0 18C0 8.055 8.055 0 18 0C27.945 0 36 8.055 36 18Z" fill="white"/>
<path d="M16.2 11.6156C15.9117 11.6156 15.6797 11.8477 15.6797 12.1359C15.6797 12.4242 15.9117 12.6563 16.2 12.6563C16.4883 12.6563 16.7203 12.4242 16.7203 12.1359C16.7203 11.8477 16.4883 11.6156 16.2 11.6156Z" fill="url(#paint0_linear_178_699)"/>
<path d="M20.3768 11.6156C20.0885 11.6156 19.8564 11.8477 19.8564 12.1359C19.8564 12.4242 20.0885 12.6563 20.3768 12.6563C20.665 12.6563 20.8971 12.4242 20.8971 12.1359C20.9041 11.8477 20.6721 11.6156 20.3768 11.6156Z" fill="url(#paint1_linear_178_699)"/>
<path d="M18 0C8.05781 0 0 8.05781 0 18C0 27.9422 8.05781 36 18 36C27.9422 36 36 27.9422 36 18C36 8.05781 27.9422 0 18 0ZM12.7125 20.2641C12.7125 20.8406 12.2414 21.3117 11.6648 21.3117C11.0883 21.3117 10.6172 20.8406 10.6172 20.2641V15.7922C10.6172 15.2156 11.0883 14.7445 11.6648 14.7445C12.2414 14.7445 12.7125 15.2156 12.7125 15.7922V20.2641ZM23.168 15.6164V16.3266V22.4156C23.168 23.0273 22.6758 23.5195 22.0641 23.5195H21.2695C21.2977 23.6109 21.3117 23.7094 21.3117 23.8078V23.8641V24.2156V26.0156C21.3117 26.5922 20.8406 27.0633 20.2641 27.0633C19.6875 27.0633 19.2164 26.5922 19.2164 26.0156V24.2156V23.8641V23.8078C19.2164 23.7094 19.2305 23.6109 19.2586 23.5195H17.318C17.3461 23.6109 17.3602 23.7094 17.3602 23.8078V23.8641V24.2156V26.0156C17.3602 26.5922 16.8891 27.0633 16.3125 27.0633C15.7359 27.0633 15.2648 26.5922 15.2648 26.0156V24.2156V23.8641V23.8078C15.2648 23.7094 15.2789 23.6109 15.307 23.5195H14.5125C13.9008 23.5195 13.4086 23.0273 13.4086 22.4156V16.3266V15.6164V14.7445H13.4859H23.0906H23.168V15.6164ZM13.4086 14.0555C13.4086 12.5648 14.407 11.257 15.8906 10.568L15.6937 10.2727L15.4969 9.98438L15.0609 9.33047C15.0117 9.25313 15.0328 9.14062 15.1102 9.09141C15.1875 9.03516 15.3 9.06328 15.3492 9.14062L15.8133 9.83672L16.0102 10.132L16.207 10.4273C16.8398 10.1813 17.5359 10.0477 18.2812 10.0477C19.0195 10.0477 19.7227 10.1813 20.3555 10.4273L20.5523 10.132L20.7492 9.83672L21.2133 9.14062C21.2625 9.06328 21.375 9.03516 21.4523 9.09141C21.5297 9.14766 21.5578 9.25313 21.5016 9.33047L21.0656 9.98438L20.8828 10.2727L20.6859 10.568C22.1625 11.257 23.1609 12.5578 23.1609 14.0555H13.4086ZM25.9523 20.2641C25.9523 20.8406 25.4813 21.3117 24.9047 21.3117C24.3281 21.3117 23.857 20.8406 23.857 20.2641V15.7922C23.857 15.2156 24.3281 14.7445 24.9047 14.7445C25.4813 14.7445 25.9523 15.2156 25.9523 15.7922V20.2641Z" fill="url(#paint2_linear_178_699)"/>
<defs>
<linearGradient id="paint0_linear_178_699" x1="16.2" y1="11.6156" x2="16.2" y2="12.6563" gradientUnits="userSpaceOnUse">
<stop stop-color="#FF0010"/>
<stop offset="1" stop-color="#85020A"/>
</linearGradient>
<linearGradient id="paint1_linear_178_699" x1="20.3768" y1="11.6156" x2="20.3768" y2="12.6563" gradientUnits="userSpaceOnUse">
<stop stop-color="#FF0010"/>
<stop offset="1" stop-color="#85020A"/>
</linearGradient>
<linearGradient id="paint2_linear_178_699" x1="18" y1="-1.07288e-06" x2="18" y2="36" gradientUnits="userSpaceOnUse">
<stop stop-color="#FF0010"/>
<stop offset="1" stop-color="#85020A"/>
</linearGradient>
</defs>
</svg>
