<svg width="18" height="12" viewBox="0 0 18 12" fill="none" xmlns="http://www.w3.org/2000/svg">
<path d="M8.99624 7.73148L15.4609 1.00705C15.6385 0.82189 15.8759 0.720031 16.1291 0.720031C16.3824 0.720031 16.6197 0.82189 16.7975 1.00705L17.3637 1.59628C17.5418 1.78114 17.6399 2.02827 17.6399 2.29161C17.6399 2.55495 17.5418 2.80178 17.3637 2.98679L9.66693 10.9933C9.48851 11.179 9.2501 11.2808 8.99666 11.28C8.7421 11.2808 8.50397 11.1792 8.32541 10.9933L0.636092 2.99425C0.457953 2.80923 0.359892 2.56241 0.359892 2.29892C0.359892 2.03557 0.457953 1.78875 0.636092 1.60359L1.20226 1.0145C1.57076 0.631179 2.17064 0.631179 2.539 1.0145L8.99624 7.73148Z" fill="white"/>
</svg>
