<svg width="6" height="10" viewBox="0 0 6 10" fill="none" xmlns="http://www.w3.org/2000/svg">
<path d="M2.01622 4.99789L5.83692 8.73902C5.94213 8.84179 6 8.97919 6 9.12569C6 9.27228 5.94213 9.40959 5.83692 9.51252L5.50213 9.84016C5.39709 9.94325 5.25668 10 5.10706 10C4.95743 10 4.81719 9.94325 4.71207 9.84016L0.162914 5.38602C0.0573782 5.28276 -0.000413133 5.1448 2.02901e-06 4.99813C-0.000413144 4.85081 0.0572951 4.71301 0.162914 4.60968L4.70783 0.159838C4.81295 0.0567488 4.9532 4.08066e-07 5.10291 3.91575e-07C5.25253 3.75094e-07 5.39278 0.0567487 5.49798 0.159838L5.83269 0.48748C6.05048 0.700733 6.05048 1.04789 5.83269 1.26106L2.01622 4.99789Z" fill="#848484"/>
</svg>
