<svg width="41" height="40" viewBox="0 0 41 40" fill="none" xmlns="http://www.w3.org/2000/svg">
<g clip-path="url(#clip0_233_1190)">
<path d="M18.0389 25.3594C18.5614 25.8831 19.2865 26.1834 20.0275 26.1834C20.7673 26.1834 21.4924 25.8831 22.0161 25.3594L31.1543 16.2218C32.2528 15.1239 32.2528 13.3429 31.1543 12.2448C30.0557 11.1462 28.2746 11.1462 27.1772 12.2448V12.2443L22.84 16.5814V2.9834C22.84 1.43004 21.5803 0.170898 20.0275 0.170898C18.4736 0.170898 17.215 1.43004 17.215 2.9834V16.5807L12.8791 12.2448C11.7805 11.1462 9.99949 11.1462 8.90207 12.2443C7.80348 13.3429 7.80348 15.1239 8.90207 16.2219L18.0389 25.3594Z" fill="white"/>
<path d="M37.0159 29.9333H26.0747C25.0309 32.2356 22.7189 33.8396 20.0273 33.8396C17.3356 33.8396 15.0237 32.2356 13.9812 29.9333H3.04C1.37625 29.9333 0.0273438 31.2816 0.0273438 32.9449V36.8169C0.0273438 38.4808 1.37625 39.829 3.04 39.829H37.0158C38.6796 39.829 40.0273 38.4807 40.0273 36.8169V32.9449C40.0273 31.2816 38.6797 29.9333 37.0159 29.9333Z" fill="white"/>
</g>
<defs>
<clipPath id="clip0_233_1190">
<rect width="40" height="40" fill="white" transform="translate(0.0273438)"/>
</clipPath>
</defs>
</svg>
