<svg width="41" height="40" viewBox="0 0 41 40" fill="none" xmlns="http://www.w3.org/2000/svg">
<g clip-path="url(#clip0_233_1200)">
<path d="M36.9052 36.8815L36.0533 34.3768C34.4537 29.6653 30.1218 26.4543 25.1866 26.2437C24.7523 26.5811 24.2944 26.8711 23.8198 27.1247C23.1122 28.9825 20.7351 29.4858 19.3422 28.063C17.6945 27.9175 16.186 27.2666 14.8686 26.2437C9.93336 26.4538 5.60271 29.6647 4.00189 34.3769L3.1514 36.8815C2.90553 37.602 3.02394 38.3959 3.46744 39.0144C3.90952 39.6333 4.62485 40.0001 5.38565 40.0001H34.6698C35.4304 40.0001 36.1458 39.6334 36.588 39.0144C37.0313 38.3959 37.1497 37.602 36.9052 36.8815Z" fill="white"/>
<path d="M23.2877 24.3372C26.1527 22.3235 28.1566 17.8764 28.1566 13.5771C28.1566 1.35845 11.8994 1.37143 11.8994 13.5771C11.8994 18.8023 14.858 24.2377 18.7283 25.2638C19.1014 24.2065 20.1001 23.4418 21.2837 23.4418C22.0796 23.4418 22.7896 23.7909 23.2877 24.3372Z" fill="white"/>
<path d="M8.33254 18.6781C8.73559 20.2613 10.9322 19.8257 10.9322 18.3594C10.9322 12.4826 11.2131 11.9338 10.4263 11.2959C12.2274 0.19772 27.7421 0.280961 29.6304 11.2972C28.8448 11.9371 29.1259 12.4832 29.1259 18.3594C29.1259 18.8191 29.3729 19.2048 29.7279 19.4441C29.7279 24.0159 27.8734 23.7486 22.2969 25.2267C21.4348 24.2909 19.8949 24.9002 19.8949 26.1623C19.8949 27.743 22.1604 28.1129 22.6 26.5239C27.1021 25.3301 31.0595 24.9536 31.0595 20.4539V19.5305C31.3937 19.3575 31.6304 19.0507 31.7253 18.6781C36.065 18.5897 36.0664 12.086 31.7253 11.9975C31.6355 11.6425 31.4146 11.3525 31.1037 11.1756C31.2156 9.84393 30.9412 8.09346 30.1778 6.40354C24.8681 -4.55291 9.18554 -0.265962 8.93992 10.3524C8.90609 10.712 8.93339 10.9669 8.95416 11.1756C8.64331 11.3525 8.42231 11.6425 8.33254 11.9975C6.51449 12.0326 5.04883 13.5119 5.04883 15.3379C5.04883 17.1637 6.51449 18.6429 8.33254 18.6781Z" fill="white"/>
</g>
<defs>
<clipPath id="clip0_233_1200">
<rect width="40" height="40" fill="white" transform="translate(0.0273438)"/>
</clipPath>
</defs>
</svg>
