<svg width="41" height="40" viewBox="0 0 41 40" fill="none" xmlns="http://www.w3.org/2000/svg">
<path d="M16.2773 5C14.5515 5 13.1523 6.39911 13.1523 8.125C13.1523 9.85089 14.5515 11.25 16.2773 11.25H19.4023V18.75H5.65234C3.92646 18.75 2.52734 17.3509 2.52734 15.625V14.375C2.52734 12.6491 3.92645 11.25 5.65234 11.25H11.5996C11.0013 10.3562 10.6523 9.28134 10.6523 8.125C10.6523 5.0184 13.1707 2.5 16.2773 2.5C18.0444 2.5 19.6211 3.31479 20.6523 4.58917C21.6836 3.31479 23.2603 2.5 25.0273 2.5C28.1339 2.5 30.6523 5.0184 30.6523 8.125C30.6523 9.28134 30.3034 10.3562 29.7051 11.25H35.6523C37.3782 11.25 38.7773 12.6491 38.7773 14.375V15.625C38.7773 17.3509 37.3782 18.75 35.6523 18.75H21.9023V11.25H25.0273C26.7532 11.25 28.1523 9.85089 28.1523 8.125C28.1523 6.39911 26.7532 5 25.0273 5C23.3015 5 21.9023 6.39911 21.9023 8.125V11.25H19.4023V8.125C19.4023 6.39911 18.0032 5 16.2773 5Z" fill="white"/>
<path d="M19.4023 21.25H5.02734V32.5C5.02734 34.5711 6.70627 36.25 8.77734 36.25H19.4023V21.25Z" fill="white"/>
<path d="M21.9023 21.25V36.25H32.5273C34.5984 36.25 36.2773 34.5711 36.2773 32.5V21.25H21.9023Z" fill="white"/>
</svg>
