<svg width="41" height="40" viewBox="0 0 41 40" fill="none" xmlns="http://www.w3.org/2000/svg">
<g clip-path="url(#clip0_233_1210)">
<path d="M39.9991 17.9822L40.0003 28.5419C40.0003 31.4662 37.7174 33.8574 34.8365 34.0305L34.5016 34.0406H5.55285C2.62849 34.0406 0.237321 31.7577 0.0642091 28.8768L0.0541736 28.5419L0.0527344 17.9822H39.9991ZM32.5301 24.9911H27.5313L27.3278 25.0048C26.5958 25.1041 26.0317 25.7316 26.0317 26.4908C26.0317 27.25 26.5958 27.8774 27.3278 27.9767L27.5313 27.9904H32.5301L32.7336 27.9767C33.4656 27.8774 34.0297 27.25 34.0297 26.4908C34.0297 25.7316 33.4656 25.1041 32.7336 25.0048L32.5301 24.9911ZM34.5016 6.03711C37.4259 6.03711 39.8171 8.31997 39.9902 11.2008L40.0003 11.5358L39.9991 14.983H0.0527344L0.0541736 11.5358C0.0541736 8.61143 2.33703 6.22026 5.21789 6.04714L5.55285 6.03711H34.5016Z" fill="white"/>
</g>
<defs>
<clipPath id="clip0_233_1210">
<rect width="40" height="40" fill="white" transform="translate(0.0273438)"/>
</clipPath>
</defs>
</svg>
