<svg width="40" height="41" viewBox="0 0 40 41" fill="none" xmlns="http://www.w3.org/2000/svg">
<path fill-rule="evenodd" clip-rule="evenodd" d="M0 20.5C0 9.454 8.954 0.5 20 0.5C31.046 0.5 40 9.454 40 20.5C40 31.546 31.046 40.5 20 40.5C8.954 40.5 0 31.546 0 20.5ZM20 22.5C19.4696 22.5 18.9609 22.2893 18.5858 21.9142C18.2107 21.5391 18 21.0304 18 20.5V12.5C18 11.9696 18.2107 11.4609 18.5858 11.0858C18.9609 10.7107 19.4696 10.5 20 10.5C20.5304 10.5 21.0391 10.7107 21.4142 11.0858C21.7893 11.4609 22 11.9696 22 12.5V20.5C22 21.0304 21.7893 21.5391 21.4142 21.9142C21.0391 22.2893 20.5304 22.5 20 22.5ZM17 28.5C17 27.7044 17.3161 26.9413 17.8787 26.3787C18.4413 25.8161 19.2044 25.5 20 25.5H20.02C20.8156 25.5 21.5787 25.8161 22.1413 26.3787C22.7039 26.9413 23.02 27.7044 23.02 28.5V28.52C23.02 29.3156 22.7039 30.0787 22.1413 30.6413C21.5787 31.2039 20.8156 31.52 20.02 31.52H20C19.2044 31.52 18.4413 31.2039 17.8787 30.6413C17.3161 30.0787 17 29.3156 17 28.52V28.5Z" fill="url(#paint0_linear_144_1382)"/>
<defs>
<linearGradient id="paint0_linear_144_1382" x1="20" y1="0.499999" x2="20" y2="40.5" gradientUnits="userSpaceOnUse">
<stop stop-color="#E90338"/>
<stop offset="1" stop-color="#AF0028"/>
</linearGradient>
</defs>
</svg>
