<svg width="18" height="18" viewBox="0 0 18 18" fill="none" xmlns="http://www.w3.org/2000/svg">
<path d="M8.1665 6.50008H9.83317V4.83342H8.1665V6.50008ZM8.99984 15.6667C5.32484 15.6667 2.33317 12.6751 2.33317 9.00008C2.33317 5.32508 5.32484 2.33341 8.99984 2.33341C12.6748 2.33341 15.6665 5.32508 15.6665 9.00008C15.6665 12.6751 12.6748 15.6667 8.99984 15.6667ZM8.99984 0.666748C7.90549 0.666748 6.82186 0.882296 5.81081 1.30109C4.79976 1.71987 3.8811 2.3337 3.10728 3.10752C1.54448 4.67033 0.666504 6.78994 0.666504 9.00008C0.666504 11.2102 1.54448 13.3298 3.10728 14.8926C3.8811 15.6665 4.79976 16.2803 5.81081 16.6991C6.82186 17.1179 7.90549 17.3334 8.99984 17.3334C11.21 17.3334 13.3296 16.4554 14.8924 14.8926C16.4552 13.3298 17.3332 11.2102 17.3332 9.00008C17.3332 7.90573 17.1176 6.8221 16.6988 5.81105C16.28 4.80001 15.6662 3.88135 14.8924 3.10752C14.1186 2.3337 13.1999 1.71987 12.1889 1.30109C11.1778 0.882296 10.0942 0.666748 8.99984 0.666748ZM8.1665 13.1667H9.83317V8.16675H8.1665V13.1667Z" fill="#848484"/>
</svg>
