<svg width="36" height="36" viewBox="0 0 36 36" fill="none" xmlns="http://www.w3.org/2000/svg">
<g clip-path="url(#clip0_178_703)">
<path d="M36 18C36 27.936 27.945 36 18 36C8.055 36 0 27.936 0 18C0 8.055 8.055 0 18 0C27.945 0 36 8.055 36 18Z" fill="url(#paint0_linear_178_703)"/>
<path d="M7.97172 23.4443H9.69194V15.4623H7.97172V23.4443ZM8.82838 14.4156C9.36034 14.4156 9.78866 13.9638 9.78866 13.3991C9.78866 12.8193 9.36034 12.375 8.82838 12.375C8.30333 12.375 7.875 12.8193 7.875 13.3991C7.875 13.9638 8.30333 14.4156 8.82838 14.4156Z" fill="white"/>
<path d="M15.7021 12.3977C12.7935 12.3977 10.9697 14.5588 10.9697 18.0152C10.9697 21.4715 12.7935 23.6251 15.7021 23.6251C18.6036 23.6251 20.4275 21.4715 20.4275 18.0152C20.4275 14.5588 18.6036 12.3977 15.7021 12.3977ZM15.7021 14.0543C17.4776 14.0543 18.6106 15.5905 18.6106 18.0152C18.6106 20.4323 17.4776 21.9684 15.7021 21.9684C13.9197 21.9684 12.7935 20.4323 12.7935 18.0152C12.7935 15.5905 13.9197 14.0543 15.7021 14.0543Z" fill="white"/>
<path d="M21.4434 20.387C21.5193 22.3901 23.0253 23.625 25.319 23.625C27.7301 23.625 29.25 22.3298 29.25 20.2665C29.25 18.6476 28.3933 17.7364 26.3691 17.232L25.2222 16.9458C23.9995 16.6295 23.4951 16.2079 23.4951 15.485C23.4951 14.5814 24.2551 13.9789 25.3812 13.9789C26.521 13.9789 27.3018 14.5889 27.3847 15.6054H29.0841C29.0427 13.6928 27.5919 12.3976 25.395 12.3976C23.2257 12.3976 21.6851 13.7003 21.6851 15.6281C21.6851 17.1792 22.5556 18.1431 24.3932 18.6024L25.6852 18.9338C26.9425 19.2575 27.4538 19.7093 27.4538 20.4924C27.4538 21.396 26.6178 22.0437 25.4157 22.0437C24.1998 22.0437 23.2809 21.3885 23.1705 20.387H21.4434Z" fill="white"/>
</g>
<defs>
<linearGradient id="paint0_linear_178_703" x1="18" y1="-1.07288e-06" x2="18" y2="36" gradientUnits="userSpaceOnUse">
<stop stop-color="#FF0010"/>
<stop offset="1" stop-color="#85020A"/>
</linearGradient>
<clipPath id="clip0_178_703">
<rect width="36" height="36" fill="white"/>
</clipPath>
</defs>
</svg>
