<svg width="25" height="24" viewBox="0 0 25 24" fill="none" xmlns="http://www.w3.org/2000/svg">
<path d="M12.8994 1.5C10.7122 1.50258 8.61526 2.3726 7.06864 3.91922C5.52203 5.46584 4.652 7.56276 4.64942 9.75C4.6468 11.5374 5.23066 13.2763 6.31142 14.7C6.31142 14.7 6.53642 14.9963 6.57317 15.039L12.8994 22.5L19.2287 15.0353C19.2617 14.9955 19.4874 14.7 19.4874 14.7L19.4882 14.6978C20.5684 13.2747 21.152 11.5366 21.1494 9.75C21.1468 7.56276 20.2768 5.46584 18.7302 3.91922C17.1836 2.3726 15.0867 1.50258 12.8994 1.5ZM12.8994 12.75C12.3061 12.75 11.7261 12.5741 11.2327 12.2444C10.7394 11.9148 10.3548 11.4462 10.1278 10.8981C9.90072 10.3499 9.84131 9.74667 9.95707 9.16473C10.0728 8.58279 10.3585 8.04824 10.7781 7.62868C11.1977 7.20912 11.7322 6.9234 12.3142 6.80764C12.8961 6.69189 13.4993 6.7513 14.0475 6.97836C14.5957 7.20542 15.0642 7.58994 15.3938 8.08329C15.7235 8.57664 15.8994 9.15666 15.8994 9.75C15.8984 10.5453 15.582 11.3078 15.0196 11.8702C14.4573 12.4326 13.6948 12.749 12.8994 12.75Z" fill="white"/>
</svg>
