<svg width="38" height="38" viewBox="0 0 38 38" fill="none" xmlns="http://www.w3.org/2000/svg">
<path fill-rule="evenodd" clip-rule="evenodd" d="M19 0C8.50606 0 0 8.5025 0 19C0 29.4975 8.50606 38 19 38C29.4939 38 38 29.4975 38 19C38 8.5025 29.4939 0 19 0Z" fill="white"/>
<path fill-rule="evenodd" clip-rule="evenodd" d="M25.7177 24.035C26.182 24.4981 26.182 25.2582 25.7177 25.7213C25.2545 26.1844 24.5017 26.1844 24.0374 25.7213L19.0071 20.6863L13.9412 25.7568C13.4734 26.2199 12.7158 26.2199 12.2479 25.7568C11.7812 25.2818 11.7812 24.5219 12.2479 24.0588L17.3138 18.9881L12.2835 13.965C11.8192 13.5019 11.8192 12.7418 12.2835 12.2787C12.7454 11.8156 13.4983 11.8156 13.9626 12.2787L18.9929 17.3137L24.0967 12.2075C24.5646 11.7444 25.321 11.7444 25.7889 12.2075C26.2556 12.6825 26.2556 13.4306 25.7889 13.9056L20.6862 19.0119L25.7177 24.035ZM19 0C8.50606 0 0 8.5025 0 19C0 29.4975 8.50606 38 19 38C29.4939 38 38 29.4975 38 19C38 8.5025 29.4939 0 19 0Z" fill="#C90104"/>
</svg>
