<svg width="38" height="37" viewBox="0 0 38 37" fill="none" xmlns="http://www.w3.org/2000/svg">
<path fill-rule="evenodd" clip-rule="evenodd" d="M38 18.5C38 28.7172 29.4933 37 19 37C8.50659 37 0 28.7172 0 18.5C0 8.28273 8.50659 0 19 0C29.4933 0 38 8.28273 38 18.5ZM26.6576 12.8939C27.2141 13.4357 27.2141 14.3143 26.6576 14.8561L17.1576 24.1061C16.6011 24.6479 15.6989 24.6479 15.1424 24.1061L11.3424 20.4061C10.7859 19.8642 10.7859 18.9858 11.3424 18.4439C11.8989 17.9021 12.8011 17.9021 13.3576 18.4439L16.15 21.1627L20.3961 17.0283L24.6424 12.8939C25.1989 12.352 26.1011 12.352 26.6576 12.8939Z" fill="#2AC901"/>
</svg>
