<svg width="25" height="24" viewBox="0 0 25 24" fill="none" xmlns="http://www.w3.org/2000/svg">
<path d="M20.8996 10.999H22.8996C22.8996 5.869 19.0266 2 13.8896 2V4C17.9516 4 20.8996 6.943 20.8996 10.999Z" fill="white"/>
<path d="M13.8997 7.99999C16.0027 7.99999 16.8997 8.89699 16.8997 11H18.8997C18.8997 7.77499 17.1247 5.99999 13.8997 5.99999V7.99999ZM17.3217 13.443C17.1295 13.2683 16.877 13.1752 16.6175 13.1832C16.358 13.1912 16.1117 13.2998 15.9307 13.486L13.5377 15.947C12.9617 15.837 11.8037 15.476 10.6117 14.287C9.4197 13.094 9.0587 11.933 8.9517 11.361L11.4107 8.96699C11.5971 8.78612 11.7058 8.53982 11.7139 8.2802C11.7219 8.02059 11.6286 7.76804 11.4537 7.57599L7.7587 3.51299C7.58374 3.32035 7.34058 3.2035 7.08085 3.18725C6.82112 3.17101 6.56529 3.25665 6.3677 3.42599L4.1977 5.28699C4.02481 5.46051 3.92162 5.69145 3.9077 5.93599C3.8927 6.18599 3.6067 12.108 8.1987 16.702C12.2047 20.707 17.2227 21 18.6047 21C18.8067 21 18.9307 20.994 18.9637 20.992C19.2082 20.9783 19.439 20.8747 19.6117 20.701L21.4717 18.53C21.6412 18.3325 21.727 18.0768 21.7109 17.817C21.6949 17.5573 21.5782 17.3141 21.3857 17.139L17.3217 13.443Z" fill="white"/>
</svg>
