<svg width="20" height="20" viewBox="0 0 20 20" fill="none" xmlns="http://www.w3.org/2000/svg">
<path d="M9.13733 1.47145C9.52367 0.812466 10.4763 0.812466 10.8627 1.47145L13.3479 5.71043C13.4889 5.95092 13.7238 6.12163 13.9961 6.18141L18.7956 7.23507C19.5417 7.39886 19.8361 8.30489 19.3288 8.87597L16.0652 12.5495C15.8801 12.7579 15.7903 13.0341 15.8176 13.3115L16.2987 18.2017C16.3734 18.9619 15.6027 19.5219 14.9028 19.2158L10.4006 17.2472C10.1452 17.1355 9.85478 17.1355 9.59936 17.2472L5.09717 19.2158C4.39727 19.5219 3.62656 18.9619 3.70134 18.2017L4.18238 13.3115C4.20967 13.0341 4.11992 12.7579 3.93477 12.5495L0.671229 8.87597C0.163886 8.30489 0.458273 7.39886 1.20439 7.23507L6.00388 6.18141C6.27616 6.12163 6.51113 5.95092 6.65212 5.71043L9.13733 1.47145Z" fill="#FFCE22"/>
</svg>
