<svg width="131" height="130" viewBox="0 0 131 130" fill="none" xmlns="http://www.w3.org/2000/svg">
<rect width="92.2399" height="92.3163" rx="10" transform="matrix(0.709811 0.704392 -0.709811 0.704392 65.5271 0)" fill="url(#paint0_linear_144_1519)"/>
<g clip-path="url(#clip0_144_1519)">
<path d="M67.1227 57.3307V53.9179L62.7219 52.9402C62.5718 52.4709 62.3806 52.021 62.1576 51.5893L64.5807 47.7812L62.1672 45.3678L58.3592 47.7909C57.9275 47.5679 57.4775 47.3768 57.0083 47.2266L56.0312 42.8264H52.6185L51.6407 47.2271C51.1715 47.3773 50.7215 47.5684 50.2898 47.7914L46.4818 45.3684L44.0683 47.7818L46.4914 51.5899C46.2684 52.0216 46.0772 52.4715 45.9271 52.9407L41.527 53.9179V57.3307L45.9278 58.3084C46.0779 58.7776 46.269 59.2276 46.492 59.6593L44.069 63.4674L46.4824 65.8807L50.2905 63.4577C50.7222 63.6807 51.1721 63.8717 51.6414 64.0219L52.6186 68.4221H56.0314L57.0091 64.0213C57.4784 63.8712 57.9283 63.6801 58.36 63.4571L62.1681 65.8801L64.5815 63.4668L62.1585 59.6587C62.3815 59.2269 62.5726 58.7771 62.7227 58.3078L67.1227 57.3307ZM54.3248 59.8902C51.9689 59.8902 50.0589 57.9803 50.0589 55.6243C50.0589 53.2683 51.9689 51.3583 54.3248 51.3583C56.6808 51.3583 58.5908 53.2683 58.5908 55.6243C58.5908 57.9803 56.6808 59.8902 54.3248 59.8902ZM72.6241 82.1312L73.6997 79.5046L70.6203 77.3647C70.6527 76.9564 70.647 76.5497 70.6117 76.1475L73.677 73.9798L72.5798 71.3617L68.8849 72.0272C68.6226 71.72 68.3371 71.4305 68.0231 71.1671L68.6573 67.4717L66.0307 66.3961L63.8909 69.4756C63.4825 69.4431 63.0758 69.4488 62.6736 69.4841L60.506 66.4188L57.8878 67.516L58.5533 71.2109C58.2462 71.4731 57.9567 71.7587 57.6933 72.0727L53.9978 71.4385L52.9223 74.0652L56.0017 76.2049C55.9692 76.6133 55.9749 77.02 56.0102 77.4221L52.945 79.5898L54.0422 82.208L57.737 81.5425C57.9992 81.8497 58.2848 82.1392 58.5987 82.4025L57.9645 86.098L60.5912 87.1735L62.731 84.0942C63.1394 84.1266 63.5462 84.1208 63.9482 84.0855L66.1159 87.1508L68.7341 86.0536L68.0686 82.3587C68.3758 82.0971 68.6653 81.8109 68.9286 81.497L72.6241 82.1312ZM61.966 80.0682C60.1527 79.3259 59.2841 77.2538 60.0264 75.44C60.7687 73.626 62.8408 72.7581 64.6547 73.5004C66.468 74.2426 67.3366 76.3147 66.5943 78.1287C65.852 79.9425 63.7799 80.811 61.966 80.0682ZM89.527 54.9366L88.622 52.1461L84.7639 52.5136C84.5171 52.1694 84.2406 51.8527 83.9443 51.5586L84.9157 47.8023L82.3021 46.469L79.8307 49.4603C79.4188 49.3926 79.0003 49.3551 78.5765 49.3573L76.6096 46.0179L73.8192 46.9229L74.1866 50.781C73.8425 51.0278 73.5257 51.3043 73.2316 51.6006L69.4753 50.6292L68.1421 53.2428L71.1334 55.7142C71.0657 56.126 71.0281 56.5446 71.0305 56.9684L67.6915 58.9347L68.5965 61.7252L72.4546 61.3577C72.7014 61.7018 72.9773 62.0186 73.2742 62.3127L72.3027 66.069L74.9163 67.4022L77.3877 64.411C77.7995 64.4786 78.2182 64.5162 78.6419 64.5138L80.6089 67.8533L83.3993 66.9483L83.0319 63.0902C83.376 62.8434 83.6927 62.5669 83.9868 62.2705L87.7431 63.242L89.0764 60.6284L86.085 58.157C86.1528 57.7452 86.1902 57.3266 86.188 56.9028L89.527 54.9366ZM79.7409 60.4238C77.8143 61.0489 75.7456 59.9932 75.1211 58.0667C74.496 56.1402 75.5517 54.0715 77.4783 53.447C79.4047 52.8219 81.4735 53.8776 82.0979 55.804C82.7224 57.7306 81.6673 59.7992 79.7409 60.4238Z" fill="white"/>
</g>
<defs>
<linearGradient id="paint0_linear_144_1519" x1="46.1199" y1="-2.75124e-06" x2="46.1199" y2="92.3163" gradientUnits="userSpaceOnUse">
<stop stop-color="#E90338"/>
<stop offset="1" stop-color="#AF0028"/>
</linearGradient>
<clipPath id="clip0_144_1519">
<rect width="48" height="48" fill="white" transform="translate(41.527 41)"/>
</clipPath>
</defs>
</svg>
