<svg width="268" height="783" viewBox="0 0 268 783" fill="none" xmlns="http://www.w3.org/2000/svg">
<path d="M88.4512 421C78.7845 425 58.3512 438.7 53.9512 461.5C48.4512 490 67.9512 503.5 82.9512 500.5C97.9512 497.5 127.451 474.5 146.951 481.5C166.451 488.5 165.5 511 160.451 523.5C147.324 556 123.5 599 114.451 627.5C108.391 646.586 111 678.5 126.5 698C157.897 737.5 211.2 761.9 182 781.5" stroke="black" stroke-width="3"/>
<path d="M235.358 319.797C249.024 311.297 266.358 291.297 266.358 266.797C266.358 237.327 249.358 240.797 238.858 241.797C228.358 242.797 185.857 258.297 167.858 258.297C151.087 258.297 146.858 245.797 157.358 218.297C167.858 190.797 183.358 171.297 191.358 146.297C199.358 121.297 222.358 78.7971 186.858 35.7971L153.501 1.5" stroke="black" stroke-width="3"/>
<path d="M227.528 333.466L235.549 327.74C238.317 325.763 238.96 321.917 236.983 319.148L236.225 318.086C234.249 315.316 230.402 314.674 227.633 316.652L219.613 322.376C216.844 324.353 216.201 328.199 218.178 330.969L218.936 332.03C220.912 334.8 224.759 335.442 227.528 333.466Z" fill="#4B4B4B"/>
<path d="M216.395 352.169L228.282 343.683C231.051 341.707 231.693 337.861 229.717 335.091L218.785 319.777C216.808 317.007 212.962 316.365 210.193 318.341L198.306 326.827C195.537 328.803 194.895 332.649 196.871 335.419L207.803 350.733C209.779 353.503 213.626 354.145 216.395 352.169Z" fill="#1F1F1F"/>
<path d="M197.912 371.168L215.639 358.515C218.408 356.538 219.05 352.692 217.073 349.922L200.419 326.59C198.442 323.82 194.595 323.178 191.827 325.154L174.1 337.808C171.331 339.785 170.688 343.631 172.665 346.401L189.32 369.733C191.296 372.502 195.142 373.145 197.912 371.168Z" fill="#4B4B4B"/>
<path d="M195.176 377.657L195.344 377.538C197.191 376.22 197.618 373.655 196.301 371.81L172.97 339.122C171.652 337.276 169.087 336.848 167.242 338.165L167.074 338.286C165.228 339.604 164.799 342.168 166.117 344.014L189.449 376.7C190.766 378.546 193.33 378.975 195.176 377.657Z" fill="#1F1F1F"/>
<path d="M93.3517 424.968L100.847 419.616C103.435 417.769 104.035 414.174 102.188 411.587L101.479 410.594C99.6324 408.007 96.0375 407.406 93.4504 409.253L85.9529 414.604C83.3657 416.451 82.7652 420.045 84.6125 422.634L85.3211 423.626C87.1683 426.215 90.7632 426.815 93.3517 424.968Z" fill="#4B4B4B"/>
<path d="M142.078 402.24L166.8 384.593C168.095 383.67 168.395 381.873 167.471 380.579L167.285 380.318C166.362 379.025 164.564 378.724 163.269 379.647L138.548 397.294C137.253 398.219 136.953 400.016 137.877 401.31L138.063 401.57C138.986 402.864 140.784 403.164 142.078 402.24Z" fill="#1F1F1F"/>
<path d="M128.918 383.804L153.641 366.158C154.935 365.234 155.235 363.437 154.311 362.143L154.126 361.882C153.202 360.589 151.404 360.289 150.111 361.213L125.388 378.859C124.094 379.783 123.794 381.58 124.717 382.874L124.903 383.135C125.826 384.428 127.625 384.728 128.918 383.804Z" fill="#1F1F1F"/>
<path d="M112.787 425.076L132.824 410.775C135.412 408.927 136.012 405.331 134.166 402.744L121.117 384.466C119.27 381.879 115.675 381.278 113.088 383.125L93.0501 397.427C90.4629 399.274 89.8624 402.869 91.7096 405.457L104.757 423.736C106.604 426.323 110.198 426.923 112.787 425.076Z" fill="#1F1F1F"/>
<path d="M131.33 414.397L151.368 400.093C153.955 398.247 154.555 394.652 152.708 392.063L137.142 370.257C135.295 367.669 131.7 367.069 129.113 368.916L109.075 383.218C106.488 385.064 105.887 388.659 107.735 391.248L123.301 413.054C125.148 415.643 128.743 416.243 131.33 414.397Z" fill="#4B4B4B"/>
<path d="M129.162 420.249L129.319 420.137C131.044 418.906 131.445 416.508 130.213 414.784L108.407 384.234C107.175 382.509 104.779 382.108 103.054 383.339L102.897 383.452C101.171 384.684 100.772 387.08 102.003 388.805L123.808 419.355C125.039 421.08 127.437 421.48 129.162 420.249Z" fill="#1F1F1F"/>
<path d="M160.803 323.057C160.336 322.98 159.918 322.74 159.636 322.384C159.355 322.029 159.231 321.587 159.292 321.152L161.24 304.712C161.356 303.73 162.297 303.034 163.309 303.181L164.72 303.387C165.732 303.534 166.408 304.465 166.208 305.435L162.849 321.669C162.769 322.102 162.511 322.488 162.13 322.746C161.748 323.005 161.273 323.116 160.803 323.057Z" fill="black"/>
<path d="M116.493 351.88C116.625 351.425 116.58 350.94 116.367 350.525C116.153 350.111 115.789 349.8 115.35 349.657L98.9297 343.96C97.9489 343.62 96.879 344.151 96.5762 345.128L96.1547 346.491C95.8519 347.468 96.4378 348.498 97.4442 348.758L114.286 353.092C114.731 353.216 115.208 353.159 115.62 352.933C116.032 352.707 116.344 352.329 116.493 351.88Z" fill="black"/>
<path d="M146.016 323.4C145.888 323.431 145.757 323.434 145.628 323.409C145.5 323.384 145.378 323.331 145.269 323.254C145.16 323.177 145.067 323.077 144.994 322.958C144.92 322.841 144.869 322.708 144.843 322.568L142.665 311.938C142.6 311.636 142.649 311.316 142.798 311.049C142.948 310.782 143.186 310.59 143.463 310.515L144.25 310.317C144.386 310.285 144.525 310.284 144.66 310.314C144.794 310.344 144.921 310.404 145.033 310.491C145.145 310.578 145.238 310.69 145.308 310.819C145.378 310.949 145.423 311.093 145.439 311.243L146.83 322.071C146.87 322.362 146.808 322.66 146.657 322.907C146.506 323.153 146.278 323.329 146.016 323.4Z" fill="black"/>
<path d="M124.04 338.885C123.971 339.009 123.879 339.118 123.768 339.206C123.657 339.292 123.529 339.357 123.393 339.395C123.257 339.434 123.114 339.444 122.973 339.427C122.832 339.41 122.696 339.365 122.572 339.296L113.037 334.172C112.764 334.029 112.559 333.782 112.467 333.488C112.374 333.194 112.402 332.876 112.545 332.604L112.963 331.838C113.036 331.707 113.136 331.594 113.255 331.504C113.374 331.414 113.511 331.351 113.657 331.317C113.802 331.282 113.954 331.279 114.101 331.306C114.248 331.333 114.389 331.391 114.513 331.475L123.63 337.365C123.876 337.521 124.055 337.765 124.132 338.047C124.208 338.328 124.175 338.627 124.04 338.885Z" fill="black"/>
<path d="M133.914 329.838C133.163 330.385 132.03 330.072 131.346 329.13L119.206 312.405C118.48 311.406 118.54 310.09 119.336 309.511L120.447 308.704C121.244 308.125 122.457 308.515 123.116 309.562L134.147 327.095C134.768 328.082 134.665 329.293 133.914 329.838Z" fill="black"/>
<path d="M164.957 415.87C165.423 415.947 165.842 416.187 166.124 416.543C166.405 416.898 166.529 417.339 166.468 417.775L164.52 434.215C164.403 435.197 163.463 435.893 162.45 435.746L161.04 435.54C160.027 435.393 159.351 434.462 159.552 433.492L162.911 417.257C162.991 416.825 163.249 416.439 163.63 416.18C164.012 415.922 164.487 415.811 164.957 415.87Z" fill="black"/>
<path d="M209.267 387.047C209.135 387.502 209.18 387.987 209.393 388.402C209.607 388.816 209.971 389.127 210.41 389.27L226.83 394.967C227.811 395.307 228.881 394.776 229.184 393.798L229.605 392.436C229.908 391.458 229.322 390.428 228.316 390.169L211.474 385.835C211.029 385.711 210.551 385.768 210.14 385.994C209.728 386.22 209.416 386.597 209.267 387.047Z" fill="black"/>
<path d="M179.744 415.527C179.872 415.496 180.003 415.493 180.132 415.517C180.26 415.543 180.382 415.596 180.49 415.673C180.6 415.75 180.693 415.85 180.766 415.968C180.839 416.086 180.89 416.219 180.917 416.359L183.095 426.989C183.159 427.291 183.111 427.611 182.962 427.878C182.812 428.145 182.573 428.337 182.297 428.412L181.51 428.609C181.374 428.642 181.235 428.643 181.1 428.613C180.965 428.583 180.839 428.523 180.727 428.436C180.615 428.349 180.521 428.237 180.451 428.108C180.381 427.978 180.337 427.834 180.321 427.683L178.93 416.856C178.89 416.565 178.952 416.267 179.103 416.02C179.254 415.774 179.482 415.598 179.744 415.527Z" fill="black"/>
<path d="M201.72 400.042C201.789 399.918 201.881 399.809 201.992 399.721C202.103 399.634 202.231 399.569 202.367 399.532C202.503 399.493 202.645 399.482 202.787 399.5C202.927 399.516 203.064 399.562 203.188 399.631L212.723 404.754C212.996 404.898 213.201 405.145 213.293 405.438C213.386 405.733 213.358 406.051 213.215 406.323L212.797 407.089C212.723 407.219 212.624 407.333 212.505 407.423C212.385 407.513 212.249 407.576 212.103 407.61C211.958 407.645 211.806 407.648 211.659 407.621C211.511 407.593 211.371 407.536 211.247 407.451L202.13 401.562C201.884 401.406 201.704 401.162 201.628 400.88C201.552 400.599 201.585 400.299 201.72 400.042Z" fill="black"/>
<path d="M191.845 409.089C192.596 408.542 193.729 408.855 194.413 409.797L206.554 426.521C207.28 427.521 207.22 428.837 206.424 429.415L205.313 430.222C204.516 430.802 203.303 430.412 202.644 429.365L191.613 411.832C190.991 410.845 191.094 409.634 191.845 409.089Z" fill="black"/>
</svg>
