<svg width="127" height="33" viewBox="0 0 127 33" fill="none" xmlns="http://www.w3.org/2000/svg">
<path d="M42.1334 9.97071L38.394 24.8679C38.0566 26.1008 37.31 27.1816 36.2773 27.9321C35.3058 28.7461 34.0862 29.2035 32.8201 29.2286L37.6296 9.97071H31.6324L31.0209 12.8936L26.2584 32.1396H32.1381C35.1258 32.0769 37.9954 30.9582 40.2402 28.9811C42.6409 27.1146 44.357 24.5036 45.1203 21.5561L48.0131 9.97071H42.1334Z" fill="#FF0022"/>
<path d="M58.2671 0.872143C58.0348 0.584248 57.7381 0.35526 57.401 0.203736C57.0639 0.0522127 56.6959 -0.0175847 56.3269 2.09548e-07C55.5005 0.00572349 54.7052 0.316185 54.0926 0.872143C53.4656 1.40523 53.0487 2.14483 52.9167 2.95821C52.7792 3.59228 52.8956 4.25512 53.2409 4.804C53.5862 5.35288 54.1328 5.7439 54.7629 5.89286C54.9548 5.94211 55.153 5.96198 55.3509 5.95179C56.1894 5.95481 56.9988 5.64376 57.6204 5.07964C58.2522 4.53072 58.669 3.7747 58.7963 2.94643C58.8705 2.58122 58.8615 2.20393 58.7698 1.84272C58.6782 1.48151 58.5064 1.1457 58.2671 0.860357M52.8109 27.0246C52.8196 26.9514 52.8395 26.8798 52.8696 26.8125V26.6357L57.0912 9.95893H47.4486L46.7078 12.8818H50.5648L47.0371 26.6357C46.9794 26.8079 46.94 26.9856 46.9195 27.1661C46.7682 27.8157 46.7978 28.4945 47.0052 29.1284C47.2126 29.7623 47.5897 30.327 48.0954 30.7607C49.3921 31.733 50.9961 32.2019 52.6109 32.0807H53.4811L54.222 29.1696C53.046 28.9929 52.5757 28.2857 52.7873 27.0364M68.8387 25.8579C68.5974 26.7948 68.0511 27.6242 67.2865 28.215C66.5715 28.8176 65.6689 29.1511 64.7347 29.1579C63.0532 29.1579 62.3829 28.3564 62.6181 26.73V26.5061C62.6248 26.4198 62.6248 26.3331 62.6181 26.2468L65.405 15.0504C65.7931 13.6007 66.5809 12.8818 67.7569 12.8818H71.9314L68.8387 25.8579ZM74.248 27.5079L74.3068 27.3311V27.1661L78.6812 9.97072H68.6388C66.562 9.98483 64.5362 10.6165 62.818 11.7857C61.1685 12.7645 59.9659 14.3505 59.4666 16.2054L57.0324 25.9286C56.9724 26.1122 56.933 26.3019 56.9148 26.4943C56.7642 27.2295 56.8159 27.9919 57.0645 28.6998C57.313 29.4078 57.7491 30.0346 58.3259 30.5132C59.6713 31.6163 61.3755 32.1829 63.112 32.1043H64.0174C65.768 32.0912 67.4581 31.4612 68.7917 30.3246C69.5208 31.5032 70.9084 32.1043 72.9309 32.1043H74.9771L75.7061 29.1932C74.589 29.1225 74.0834 28.5921 74.2715 27.5668L74.248 27.5079ZM102.47 15.6161L102.4 16.0875L100.024 25.9286C99.8438 26.8354 99.4118 27.6729 98.7778 28.3446C98.5446 28.5993 98.2635 28.8053 97.9508 28.9509C97.638 29.0965 97.2997 29.1788 96.9551 29.1932C96.6815 29.2024 96.4111 29.1329 96.1756 28.993C95.9402 28.853 95.7496 28.6485 95.6263 28.4036C95.4459 28.0625 95.3353 27.6887 95.301 27.3041C95.2667 26.9196 95.3093 26.5321 95.4264 26.1643L95.4852 25.9286L97.9076 16.17C98.09 15.2957 98.4951 14.4837 99.0835 13.8129C99.3157 13.5382 99.6035 13.3162 99.928 13.1618C100.252 13.0073 100.606 12.9239 100.965 12.9171C101.229 12.9049 101.492 12.9654 101.724 13.0922C101.956 13.2189 102.149 13.407 102.282 13.6361C102.599 14.2621 102.682 14.981 102.517 15.6632M107.009 11.5736C105.692 10.4779 104.016 9.911 102.306 9.9825H101.388C99.2921 9.96467 97.2404 10.5898 95.5087 11.7739C93.8905 12.7632 92.7121 14.3364 92.2161 16.17L89.6409 25.9286C89.5828 26.1142 89.5357 26.3031 89.4997 26.4943C89.3445 27.2341 89.3952 28.0024 89.6461 28.7153C89.897 29.4282 90.3386 30.0583 90.9226 30.5368C92.2858 31.6299 94 32.1872 95.7439 32.1043H96.6259C98.723 32.1156 100.774 31.4867 102.505 30.3011C104.128 29.3197 105.318 27.7565 105.833 25.9286L108.303 16.17L108.385 15.6043C108.54 14.8705 108.493 14.1086 108.251 13.399C108.009 12.6895 107.58 12.0588 107.009 11.5736ZM124.883 9.97072C122.702 9.91519 120.562 10.5775 118.792 11.8564L119.227 9.97072H113.442L107.879 32.0925H113.759L116.722 20.0357C117.145 18.4908 117.923 17.0661 118.992 15.8754C120.005 14.6629 121.319 13.7401 122.802 13.2L122.096 16.0757H125.271L126.835 10.0179L124.883 9.97072ZM14.8872 16.5V16.4293L17.5684 5.89286C17.7522 5.07244 18.1881 4.33047 18.8148 3.77143C19.39 3.23375 20.145 2.93108 20.9315 2.92286C21.2425 2.89913 21.5545 2.95479 21.8383 3.08463C22.1221 3.21447 22.3684 3.41427 22.5543 3.66536C22.7347 3.93617 22.8589 4.24059 22.9195 4.5605C22.9801 4.88041 22.9759 5.20926 22.9071 5.5275L22.8365 5.89286L20.1554 16.335V16.5H14.8872ZM27.0463 1.65C25.5036 0.485112 23.6013 -0.0989574 21.6723 2.09548e-07C19.3667 -0.0367195 17.1013 0.606747 15.1577 1.85036C13.3696 2.95289 12.0824 4.71243 11.5711 6.75321L9.21928 16.3704H3.76298C3.26783 16.3704 2.77755 16.4683 2.32024 16.6586C1.86292 16.8488 1.44758 17.1277 1.098 17.4791C0.748421 17.8306 0.471488 18.2478 0.283075 18.7067C0.0946611 19.1656 -0.00152897 19.6573 1.83755e-05 20.1536H8.2315L5.20937 32.0925H10.9832L13.9818 20.1654H19.2382L17.3802 27.5668C17.3164 27.7508 17.2692 27.9401 17.2391 28.1325C17.1128 28.6432 17.1144 29.1772 17.2436 29.6871C17.3729 30.197 17.6258 30.667 17.9799 31.0554C18.4149 31.4293 18.9193 31.7134 19.4642 31.8914C20.0091 32.0694 20.5836 32.1377 21.1549 32.0925H23.5068L24.2476 29.1696C23.4127 29.1696 23.0717 28.6629 23.201 27.8261L28.4927 6.75321V6.39964L28.575 6.04607C28.7536 5.24333 28.7051 4.40658 28.435 3.62995C28.1649 2.85332 27.684 2.16763 27.0463 1.65ZM89.488 9.97072L90.805 4.83214H84.9254L83.7024 9.97072H80.8449L80.1041 12.8936H82.9616L79.4338 26.6829L79.3515 27.0011C79.3409 27.1029 79.3409 27.2056 79.3515 27.3075C79.1925 27.9212 79.1865 28.5648 79.3342 29.1814C79.4818 29.7979 79.7785 30.3687 80.1982 30.8432C80.6933 31.3032 81.2778 31.6558 81.9152 31.8789C82.5526 32.102 83.2291 32.1908 83.9023 32.1396H85.9484L86.701 29.1696C85.5251 29.0518 84.9959 28.3682 85.2076 27.1189C85.215 27.0454 85.2349 26.9736 85.2664 26.9068V26.73L88.7942 12.9289H91.2754L92.0162 10.0061H89.488V9.97072Z" fill="#FF0022"/>
</svg>
