<svg width="25" height="24" viewBox="0 0 25 24" fill="none" xmlns="http://www.w3.org/2000/svg">
<path d="M4.3335 23C4.06828 23 3.81393 22.8946 3.62639 22.7071C3.43885 22.5196 3.3335 22.2652 3.3335 22V19C3.3335 18.7348 3.43885 18.4804 3.62639 18.2929C3.81393 18.1054 4.06828 18 4.3335 18C4.59871 18 4.85307 18.1054 5.0406 18.2929C5.22814 18.4804 5.3335 18.7348 5.3335 19V22C5.3335 22.2652 5.22814 22.5196 5.0406 22.7071C4.85307 22.8946 4.59871 23 4.3335 23ZM13.3335 22V15C13.3335 14.7348 13.2281 14.4804 13.0406 14.2929C12.8531 14.1054 12.5987 14 12.3335 14C12.0683 14 11.8139 14.1054 11.6264 14.2929C11.4389 14.4804 11.3335 14.7348 11.3335 15V22C11.3335 22.2652 11.4389 22.5196 11.6264 22.7071C11.8139 22.8946 12.0683 23 12.3335 23C12.5987 23 12.8531 22.8946 13.0406 22.7071C13.2281 22.5196 13.3335 22.2652 13.3335 22ZM20.3335 11C20.0683 11 19.8139 11.1054 19.6264 11.2929C19.4389 11.4804 19.3335 11.7348 19.3335 12V22C19.3335 22.2652 19.4389 22.5196 19.6264 22.7071C19.8139 22.8946 20.0683 23 20.3335 23C20.5987 23 20.8531 22.8946 21.0406 22.7071C21.2281 22.5196 21.3335 22.2652 21.3335 22V12C21.3335 11.7348 21.2281 11.4804 21.0406 11.2929C20.8531 11.1054 20.5987 11 20.3335 11ZM20.7155 1.077C20.5945 1.0263 20.4647 1.00013 20.3335 1H16.3335C16.0683 1 15.8139 1.10536 15.6264 1.29289C15.4389 1.48043 15.3335 1.73478 15.3335 2C15.3335 2.26522 15.4389 2.51957 15.6264 2.70711C15.8139 2.89464 16.0683 3 16.3335 3H17.9195L12.3335 8.586L9.0405 5.293C8.85297 5.10553 8.59866 5.00021 8.3335 5.00021C8.06833 5.00021 7.81402 5.10553 7.6265 5.293L3.6265 9.293C3.44434 9.4816 3.34354 9.7342 3.34582 9.9964C3.3481 10.2586 3.45327 10.5094 3.63868 10.6948C3.82409 10.8802 4.0749 10.9854 4.33709 10.9877C4.59929 10.99 4.85189 10.8892 5.0405 10.707L8.3335 7.414L11.6265 10.707C11.814 10.8945 12.0683 10.9998 12.3335 10.9998C12.5987 10.9998 12.853 10.8945 13.0405 10.707L19.3335 4.414V6C19.3335 6.26522 19.4389 6.51957 19.6264 6.70711C19.8139 6.89464 20.0683 7 20.3335 7C20.5987 7 20.8531 6.89464 21.0406 6.70711C21.2281 6.51957 21.3335 6.26522 21.3335 6V2C21.3333 1.80229 21.2744 1.60909 21.1644 1.4448C21.0544 1.28052 20.8982 1.15252 20.7155 1.077Z" fill="url(#paint0_linear_92_1414)"/>
<defs>
<linearGradient id="paint0_linear_92_1414" x1="12.3335" y1="0.999999" x2="12.3335" y2="23" gradientUnits="userSpaceOnUse">
<stop stop-color="#FF0010"/>
<stop offset="1" stop-color="#85020A"/>
</linearGradient>
</defs>
</svg>
