<svg width="25" height="24" viewBox="0 0 25 24" fill="none" xmlns="http://www.w3.org/2000/svg">
<path d="M18.3335 8V6C18.3335 5.46957 18.1228 4.96086 17.7477 4.58579C17.3726 4.21071 16.8639 4 16.3335 4H4.3335C3.80306 4 3.29436 4.21071 2.91928 4.58579C2.54421 4.96086 2.3335 5.46957 2.3335 6V13C2.3335 13.5304 2.54421 14.0391 2.91928 14.4142C3.29436 14.7893 3.80306 15 4.3335 15H12.3335M10.3335 19V15.04V18.19M7.3335 19H12.3335M18.3335 12H20.3335C21.4381 12 22.3335 12.8954 22.3335 14V20C22.3335 21.1046 21.4381 22 20.3335 22H18.3335C17.2289 22 16.3335 21.1046 16.3335 20V14C16.3335 12.8954 17.2289 12 18.3335 12Z" stroke="url(#paint0_linear_92_1398)" stroke-width="2" stroke-linecap="round" stroke-linejoin="round"/>
<defs>
<linearGradient id="paint0_linear_92_1398" x1="12.3335" y1="4" x2="12.3335" y2="22" gradientUnits="userSpaceOnUse">
<stop stop-color="#FF0010"/>
<stop offset="1" stop-color="#85020A"/>
</linearGradient>
</defs>
</svg>
