<svg width="25" height="24" viewBox="0 0 25 24" fill="none" xmlns="http://www.w3.org/2000/svg">
<path fill-rule="evenodd" clip-rule="evenodd" d="M16.6921 2.83149C14.7811 2.03901 12.6657 1.80611 10.6152 2.16245C8.56479 2.51878 6.67209 3.44822 5.17816 4.83242C3.68422 6.21662 2.65664 7.99295 2.22627 9.93519C1.79591 11.8774 1.98222 13.8977 2.7615 15.7388C3.54077 17.5799 4.87775 19.1584 6.60217 20.2734C8.32659 21.3884 10.3604 21.9894 12.4447 21.9999C14.529 22.0103 16.5693 21.4298 18.306 20.3322C20.0427 19.2346 21.3971 17.6696 22.1967 15.8365C22.29 15.6082 22.2857 15.3542 22.1847 15.1289C22.0838 14.9035 21.8943 14.7248 21.6567 14.6308C21.4192 14.5369 21.1524 14.5353 20.9136 14.6263C20.6748 14.7173 20.4829 14.8937 20.3789 15.1177C19.6466 16.7968 18.3442 18.1933 16.68 19.0841C15.0158 19.9749 13.086 20.3083 11.1994 20.0311C9.31266 19.7539 7.57811 18.882 6.27319 17.555C4.96827 16.228 4.16838 14.5225 4.0015 12.7114C3.83462 10.9003 4.31038 9.08815 5.35267 7.56496C6.39497 6.04178 7.94357 4.89554 9.75073 4.30961C11.5579 3.72368 13.5192 3.73193 15.3208 4.33303C17.1225 4.93413 18.6604 6.09335 19.6885 7.62524H17.4218C17.1607 7.62524 16.9104 7.72401 16.7258 7.89983C16.5411 8.07564 16.4374 8.3141 16.4374 8.56274C16.4374 8.81138 16.5411 9.04984 16.7258 9.22565C16.9104 9.40147 17.1607 9.50024 17.4218 9.50024H23V4.18774C23 3.9391 22.8963 3.70065 22.7117 3.52483C22.5271 3.34902 22.2767 3.25024 22.0156 3.25024C21.7545 3.25024 21.5042 3.34902 21.3195 3.52483C21.1349 3.70065 21.0312 3.9391 21.0312 4.18774V6.17024C19.9272 4.70554 18.4279 3.5511 16.6921 2.83149ZM16.1369 11.4727C16.2301 11.5292 16.3069 11.6071 16.3601 11.6993C16.4133 11.7915 16.4411 11.895 16.4411 12.0002C16.4411 12.1054 16.4133 12.209 16.3601 12.3012C16.3069 12.3934 16.2301 12.4713 16.1369 12.5277L10.8829 15.7027C10.7835 15.7628 10.6689 15.7964 10.5512 15.7998C10.4335 15.8032 10.317 15.7765 10.2139 15.7223C10.1109 15.6681 10.025 15.5884 9.96532 15.4918C9.90566 15.3951 9.87442 15.2849 9.87487 15.1727V8.82649C9.87489 8.71456 9.90648 8.60469 9.96633 8.50836C10.0262 8.41203 10.1121 8.33277 10.2151 8.27887C10.3181 8.22497 10.4344 8.1984 10.5519 8.20194C10.6693 8.20548 10.7837 8.239 10.8829 8.29899L16.1369 11.4727Z" fill="url(#paint0_linear_92_1403)"/>
<defs>
<linearGradient id="paint0_linear_92_1403" x1="12.5" y1="2" x2="12.5" y2="22" gradientUnits="userSpaceOnUse">
<stop stop-color="#FF0010"/>
<stop offset="1" stop-color="#85020A"/>
</linearGradient>
</defs>
</svg>
