<svg width="24" height="24" viewBox="0 0 24 24" fill="none" xmlns="http://www.w3.org/2000/svg">
<g clip-path="url(#clip0_92_1380)">
<path d="M9.58105 12H2.41801C1.08244 12 0 13.083 0 14.419V21.581C0 22.917 1.08244 24 2.41801 24H9.58105C10.9166 24 12 22.917 12 21.581V14.419C12 13.083 10.9166 12 9.58105 12ZM10.0001 21.5811C10.0001 21.8123 9.81224 22.0001 9.58105 22.0001H2.41801C2.18724 22.0001 2.00002 21.8128 2.00002 21.5811V14.419C2.00002 14.1873 2.18724 14 2.41801 14H9.58105C9.81224 14 10.0001 14.1877 10.0001 14.419V21.5811Z" fill="url(#paint0_linear_92_1380)"/>
<path d="M3.9995 17C4.5515 17 4.99949 16.552 4.99949 16C4.99949 15.448 4.5515 15 3.9995 15C3.4475 15 2.99951 15.448 2.99951 16C2.99951 16.5519 3.4475 17 3.9995 17Z" fill="url(#paint1_linear_92_1380)"/>
<path d="M7.9995 15C7.4475 15 6.99951 15.448 6.99951 16C6.99951 16.552 7.4475 17 7.9995 17C8.5515 17 8.99949 16.552 8.99949 16C8.99954 15.448 8.5515 15 7.9995 15Z" fill="url(#paint2_linear_92_1380)"/>
<path d="M5.9995 17C5.4475 17 4.99951 17.448 4.99951 18C4.99951 18.552 5.4475 19 5.9995 19C6.5515 19 6.99949 18.552 6.99949 18C6.99949 17.448 6.5515 17 5.9995 17Z" fill="url(#paint3_linear_92_1380)"/>
<path d="M3.9995 19C3.4475 19 2.99951 19.448 2.99951 20C2.99951 20.552 3.4475 21 3.9995 21C4.5515 21 4.99949 20.552 4.99949 20C4.99949 19.448 4.5515 19 3.9995 19Z" fill="url(#paint4_linear_92_1380)"/>
<path d="M7.9995 19C7.4475 19 6.99951 19.448 6.99951 20C6.99951 20.552 7.4475 21 7.9995 21C8.5515 21 8.99949 20.552 8.99949 20C8.99949 19.448 8.5515 19 7.9995 19Z" fill="url(#paint5_linear_92_1380)"/>
<path d="M23.2914 5.77345L18.2264 0.708401C17.2818 -0.236134 15.7507 -0.236134 14.8061 0.708401L9.74112 5.77345C8.79658 6.71799 8.79658 8.24916 9.74112 9.1937L14.8061 14.2587C15.7507 15.2032 17.2818 15.2032 18.2264 14.2587L23.2914 9.19365C24.2359 8.24912 24.2359 6.71799 23.2914 5.77345ZM21.8771 7.77943L16.8121 12.8445C16.6487 13.0079 16.3838 13.0079 16.2203 12.8445L11.1553 7.77943C10.9919 7.61598 10.9919 7.35113 11.1553 7.18763L16.2203 2.12263C16.3838 1.95917 16.6486 1.95917 16.8121 2.12263L21.8771 7.18763C22.0406 7.35113 22.0406 7.61598 21.8771 7.77943Z" fill="url(#paint6_linear_92_1380)"/>
<path d="M15.8094 3.94806C15.4184 4.33905 15.4184 4.97205 15.8094 5.36205C16.1994 5.75304 16.8324 5.75304 17.2233 5.36205C17.6143 4.97205 17.6143 4.33905 17.2233 3.94806C16.8324 3.55703 16.1994 3.55703 15.8094 3.94806Z" fill="url(#paint7_linear_92_1380)"/>
<path d="M15.8094 6.77615C15.4184 7.16714 15.4184 7.80014 15.8094 8.19014C16.1994 8.58113 16.8324 8.58113 17.2233 8.19014C17.6143 7.80014 17.6143 7.16714 17.2233 6.77615C16.8324 6.38516 16.1994 6.38516 15.8094 6.77615Z" fill="url(#paint8_linear_92_1380)"/>
<path d="M15.8094 9.60476C15.4184 9.99575 15.4184 10.6288 15.8094 11.0188C16.1994 11.4097 16.8324 11.4097 17.2233 11.0188C17.6143 10.6288 17.6143 9.99575 17.2233 9.60476C16.8324 9.21378 16.1994 9.21378 15.8094 9.60476Z" fill="url(#paint9_linear_92_1380)"/>
</g>
<defs>
<linearGradient id="paint0_linear_92_1380" x1="6.00002" y1="12" x2="6.00002" y2="24" gradientUnits="userSpaceOnUse">
<stop stop-color="#FF0010"/>
<stop offset="1" stop-color="#85020A"/>
</linearGradient>
<linearGradient id="paint1_linear_92_1380" x1="3.9995" y1="15" x2="3.9995" y2="17" gradientUnits="userSpaceOnUse">
<stop stop-color="#FF0010"/>
<stop offset="1" stop-color="#85020A"/>
</linearGradient>
<linearGradient id="paint2_linear_92_1380" x1="7.9995" y1="15" x2="7.9995" y2="17" gradientUnits="userSpaceOnUse">
<stop stop-color="#FF0010"/>
<stop offset="1" stop-color="#85020A"/>
</linearGradient>
<linearGradient id="paint3_linear_92_1380" x1="5.9995" y1="17" x2="5.9995" y2="19" gradientUnits="userSpaceOnUse">
<stop stop-color="#FF0010"/>
<stop offset="1" stop-color="#85020A"/>
</linearGradient>
<linearGradient id="paint4_linear_92_1380" x1="3.9995" y1="19" x2="3.9995" y2="21" gradientUnits="userSpaceOnUse">
<stop stop-color="#FF0010"/>
<stop offset="1" stop-color="#85020A"/>
</linearGradient>
<linearGradient id="paint5_linear_92_1380" x1="7.9995" y1="19" x2="7.9995" y2="21" gradientUnits="userSpaceOnUse">
<stop stop-color="#FF0010"/>
<stop offset="1" stop-color="#85020A"/>
</linearGradient>
<linearGradient id="paint6_linear_92_1380" x1="16.5162" y1="-4.46054e-07" x2="16.5162" y2="14.9671" gradientUnits="userSpaceOnUse">
<stop stop-color="#FF0010"/>
<stop offset="1" stop-color="#85020A"/>
</linearGradient>
<linearGradient id="paint7_linear_92_1380" x1="16.5163" y1="3.65479" x2="16.5163" y2="5.65529" gradientUnits="userSpaceOnUse">
<stop stop-color="#FF0010"/>
<stop offset="1" stop-color="#85020A"/>
</linearGradient>
<linearGradient id="paint8_linear_92_1380" x1="16.5163" y1="6.48291" x2="16.5163" y2="8.48338" gradientUnits="userSpaceOnUse">
<stop stop-color="#FF0010"/>
<stop offset="1" stop-color="#85020A"/>
</linearGradient>
<linearGradient id="paint9_linear_92_1380" x1="16.5163" y1="9.31152" x2="16.5163" y2="11.312" gradientUnits="userSpaceOnUse">
<stop stop-color="#FF0010"/>
<stop offset="1" stop-color="#85020A"/>
</linearGradient>
<clipPath id="clip0_92_1380">
<rect width="24" height="24" fill="white"/>
</clipPath>
</defs>
</svg>
