<svg width="25" height="24" viewBox="0 0 25 24" fill="none" xmlns="http://www.w3.org/2000/svg">
<path d="M12 8V13.5385L15.5 16.5" stroke="url(#paint0_linear_92_1420)" stroke-width="2" stroke-linecap="round" stroke-linejoin="round"/>
<path d="M3.46259 6.213L2.57799 6.21725C2.58042 6.68124 2.97306 7.0568 3.45815 7.05914L3.46259 6.213ZM6.46059 7.07357C6.94914 7.07591 7.34719 6.69899 7.34964 6.23168C7.35209 5.76437 6.95804 5.38363 6.46948 5.38128L6.46059 7.07357ZM4.33211 3.33684C4.32965 2.86953 3.93162 2.49259 3.44306 2.49494C2.9545 2.4973 2.56044 2.87803 2.5629 3.34534L4.33211 3.33684ZM2.76923 12C2.76923 11.5327 2.37317 11.1538 1.88462 11.1538C1.39606 11.1538 1 11.5327 1 12H2.76923ZM18.2506 21.5279C18.6736 21.2939 18.818 20.7763 18.5734 20.3717C18.3288 19.9673 17.7876 19.829 17.3648 20.0631L18.2506 21.5279ZM20.9296 16.6533C20.6848 17.0577 20.8294 17.5754 21.2523 17.8094C21.6752 18.0433 22.2164 17.9051 22.461 17.5006L20.9296 16.6533ZM4.40911 4.18296C4.06193 4.51175 4.05913 5.0475 4.40288 5.37959C4.74662 5.71168 5.30671 5.71434 5.65389 5.38555L4.40911 4.18296ZM20.594 4.2581C16.0881 -0.0518709 8.80681 -0.0955095 4.33075 4.18594L5.58179 5.38258C9.35509 1.77333 15.5162 1.7943 19.343 5.45474L20.594 4.2581ZM4.33075 4.18594L2.83707 5.61468L4.08811 6.81132L5.58179 5.38258L4.33075 4.18594ZM3.45815 7.05914L6.46059 7.07357L6.46948 5.38128L3.46704 5.36685L3.45815 7.05914ZM4.3472 6.20874L4.33211 3.33684L2.5629 3.34534L2.57799 6.21725L4.3472 6.20874ZM12.5 2.69231C17.8741 2.69231 22.2308 6.8595 22.2308 12H24C24 5.92486 18.8513 1 12.5 1V2.69231ZM12.5 21.3077C7.12584 21.3077 2.76923 17.1404 2.76923 12H1C1 18.0752 6.14872 23 12.5 23V21.3077ZM17.3648 20.0631C15.9344 20.8545 14.2738 21.3077 12.5 21.3077V23C14.5932 23 16.5583 22.4643 18.2506 21.5279L17.3648 20.0631ZM22.2308 12C22.2308 13.6967 21.757 15.2851 20.9296 16.6533L22.461 17.5006C23.44 15.8818 24 14.0022 24 12H22.2308ZM5.65389 5.38555C7.41295 3.71964 9.83018 2.69231 12.5 2.69231V1C9.34537 1 6.48595 2.2161 4.40911 4.18296L5.65389 5.38555Z" fill="url(#paint1_linear_92_1420)"/>
<defs>
<linearGradient id="paint0_linear_92_1420" x1="13.75" y1="8" x2="13.75" y2="16.5" gradientUnits="userSpaceOnUse">
<stop stop-color="#FF0010"/>
<stop offset="1" stop-color="#85020A"/>
</linearGradient>
<linearGradient id="paint1_linear_92_1420" x1="12.5" y1="0.999999" x2="12.5" y2="23" gradientUnits="userSpaceOnUse">
<stop stop-color="#FF0010"/>
<stop offset="1" stop-color="#85020A"/>
</linearGradient>
</defs>
</svg>
